<?xml version="1.0" encoding="UTF-8" standalone="no"?>
<!-- Created with Inkscape (http://www.inkscape.org/) -->
<svg id="svg4240" xmlns:rdf="http://www.w3.org/1999/02/22-rdf-syntax-ns#" xmlns="http://www.w3.org/2000/svg" height="1455.9" viewBox="0 0 632.8125 1455.9375" width="632.81" version="1.1" xmlns:cc="http://creativecommons.org/ns#" xmlns:dc="http://purl.org/dc/elements/1.1/">
 <metadata id="metadata4246">
  <rdf:RDF>
   <cc:Work rdf:about="">
    <dc:format>image/svg+xml</dc:format>
    <dc:type rdf:resource="http://purl.org/dc/dcmitype/StillImage"/>
    <dc:title/>
   </cc:Work>
  </rdf:RDF>
 </metadata>
 <path id="path4256" d="m286.24 1453.6c-2.4646-2.8133-4.5802-2.9745-5.9303-0.4518-2.9886 5.5842-3.2812 2.3437-3.2812-36.329 0-21.011-0.2531-56.132-0.56243-78.046-0.30934-21.914-0.30934-43.219 0-47.344 1.1968-15.96-0.38706-72.848-2.121-76.178-1.2815-2.4611-1.6887-6.732-2.1006-22.031-0.75588-28.077-4.8131-41.11-13.619-43.748-4.6592-1.396-12.887-9.3195-15.945-15.356-1.0972-2.1656-3.1553-5.414-4.5736-7.2187-3.487-4.4369-10.297-21.623-10.297-25.987 0-0.8649-1.0744-5.0949-2.3876-9.4001-1.8457-6.0511-2.3315-9.4662-2.1404-15.048 0.56007-16.364-0.43281-47.594-1.6203-50.964-0.6648-1.887-1.011-3.6286-0.76922-3.8704 0.24172-0.2417-0.28894-5.8697-1.1793-12.507-0.89031-6.637-1.66-14.273-1.7104-16.97-0.0504-2.6964-0.60662-5.4175-1.236-6.0469-1.5989-1.5989-1.4283-5.929 0.28969-7.3549 2.1887-1.8164 5.4057 0.11409 8.9232 5.3545 1.6658 2.4818 3.6696 5.0295 4.453 5.6618 0.78335 0.63215 2.405 3.9538 3.6036 7.3815 1.1986 3.4276 4.2249 9.4495 6.7252 13.382 2.5002 3.9323 6.3802 10.525 8.6222 14.65s6.4689 10.129 9.3931 13.343c8.9666 9.8536 16.017 26.147 17.216 39.785 1.0984 12.497-2.0487 10.767-5.9981-3.2983-3.1052-11.058-7.2831-20.034-12.806-27.512-19.775-26.774-24.541-29.685-15.323-9.3587 2.5867 5.7044 4.5193 10.529 9.0085 22.488 0.73729 1.964 2.5517 5.9719 4.0321 8.9062 1.4804 2.9344 3.2402 7.1686 3.9108 9.4095 0.80526 2.6908 1.9362 4.3468 3.3307 4.877 2.6227 0.9971 3.9618 3.4238 6.183 11.205 3.834 13.431 4.4612 23.333 1.3125 20.72-1.956-1.6234-2.6997 5.9488-0.98687 10.048 2.5543 6.1133 1.0792 9.1272-2.0956 4.282-1.4968-2.2844-3.845-13.479-4.4024-20.987-0.13397-1.8047-0.76698-4.2435-1.4067-5.4197-0.63972-1.1761-2.2203-6.0276-3.5123-10.781-4.1211-15.162-4.4109-16.05-6.9524-21.299-1.373-2.8359-3.8616-9.5859-5.5301-15s-3.6288-10.898-4.3562-12.188c-0.72736-1.2891-2.603-5.0859-4.168-8.4375-3.8438-8.2315-4.0642-8.5957-5.1408-8.4921-1.7542 0.1689-2.3744 5.1949-1.3948 11.305 0.53736 3.3516 1.0187 8.8359 1.0696 12.188 0.0724 4.7651 0.58179 6.8258 2.3364 9.4515 2.1425 3.2063 2.1788 3.5133 0.80446 6.8026-3.4548 8.2686-2.8366 15.704 2.4522 29.493 0.45428 1.1843 0.82596 2.9555 0.82596 3.9359 0 3.916 4.7925 16.87 6.599 17.836 2.2088 1.1821 2.5319-1.5005 0.78448-6.5132-0.78219-2.2439-0.78046-3.297 0.007-4.0841 1.8987-1.8987 3.6615 1.2527 6.1068 10.917 1.2866 5.0849 3.0329 10.012 3.8806 10.948 0.91049 1.0061 1.306 2.4445 0.96635 3.5147-0.81003 2.5521 2.6362 6.733 4.2458 5.1508 0.92149-0.9059 0.84473-1.8712-0.3727-4.6875-0.84324-1.9507-1.795-5.079-2.115-6.9518-0.32001-1.8728-1.4714-4.8259-2.5587-6.5625-2.5497-4.0723-5.4661-15.042-4.319-16.246 2.0016-2.0999 8.2229 9.4598 9.8353 18.275 0.75867 4.1476 5.2182 15.908 6.0323 15.908 0.33951 0 1.3809-0.8437 2.3141-1.875 2.694-2.9768 6.9148-2.4889 8.1092 0.9375 1.3705 3.9314 4.0484 3.835 3.258-0.1172-0.32227-1.6113-0.58594-4.7137-0.58594-6.8944 0-2.9296-0.6119-4.6248-2.3438-6.4936-2.8134-3.0357-2.8826-4.1166-0.55946-8.7315 2.4203-4.8079 3.0514-25.069 3.3249-106.75 0.11758-35.106 0.5409-64.359 0.9407-65.006 0.39981-0.64688 0.62757-5.4626 0.50616-10.702-0.37812-16.315-0.15999-36.626 0.69129-64.369 0.93965-30.623 0.88113-30.935-5.1274-27.324-8.5068 5.1122-9.2753 5.2766-25.089 5.3674-22.625 0.12981-35.156 1.9197-35.156 5.0213 0 0.53506-3.3158 2.8994-7.3684 5.2541s-7.9106 5.2944-8.5732 6.5326c-2.6922 5.0304-11.856 6.4512-14.136 2.1916-1.0285-1.9218-0.21342-5.3002 3.9276-16.28 0.97611-2.5881 1.7748-5.1459 1.7748-5.684 0-0.53811 1.2627-2.1881 2.806-3.6667s3.6254-4.2602 4.6267-6.1814c4.8696-9.3426 9.9309-14.269 18.817-18.317 10.76-4.901 16.343-6.3807 34.688-9.1948 12.876-1.9751 13.6-2.8466 7.5745-9.1171l-3.6756-3.8252-4.5276 0.99237c-12.379 2.7132-18.469 2.007-29.755-3.45-4.1717-2.0172-12.648-6.0576-18.835-8.9786-7.5704-3.5738-12.63-6.6464-15.469-9.394-8.2996-8.0327-23.981-20.425-28.125-22.226-2.3203-1.0082-6.75-3.0978-9.8438-4.6434-9.8191-4.9055-17.341-7.5946-19.634-7.0191-7.5863 1.904-10.371-4.1342-4.7413-10.281 5.0774-5.5433 1.0226-10.247-8.8334-10.247h-5.2292l0.22926-2.9828c0.30101-3.9163-2.897-6.4716-9.1809-7.3359-5.713-0.78574-7.4546 0.35741-7.4546 4.8931 0 2.4174-0.7004 3.8656-2.7313 5.6477-2.2087 1.9381-2.6444 2.9532-2.2774 5.306 0.38537 2.4704-0.19269 3.5884-3.8312 7.41-2.3568 2.4753-4.2851 4.8833-4.2851 5.3511 0 5.8558-19.209 7.9608-30.394 3.3308-6.2605-2.5915-8.5292-3.1447-9.8964-2.413-6.479 3.4674-19.001-4.2466-23.568-14.519-10.431-23.459 10.142-61.662 34.428-63.93 7.2624-0.67817 7.1503-0.53411 6.3668-8.1814l-0.62486-6.099-6.4468-4.7939-6.4468-4.7939-7.2555 0.44556c-3.9905 0.24506-8.5653 0.73781-10.166 1.095-2.4483 0.54625-3.222 0.2538-4.8695-1.8406-2.6838-3.4118-1.5343-6.6569 2.2763-6.426 7.4972 0.45433 8.7062-1.776 4.035-7.443-2.8991-3.5171-3.5342-8.1022-1.227-8.8585 1.4173-0.4646 6.6679 4.0446 8.2782 7.1094 2.5727 4.8963 7.8576 9.7567 9.9997 9.1965 1.1003-0.28774 2.942 0.0937 4.0927 0.84764 1.8383 1.2045 2.2319 1.2024 3.244-0.0172 1.4976-1.8044-1.8084-7.99-5.4288-10.157-4.3733-2.6182-11.698-10.731-11.099-12.293 3.9481-10.289 28.801-13.354 42.187-5.2031 2.4835 1.5122 4.8693 2.7495 5.3019 2.7495 2.8606 0 20.666 19.415 23.06 25.144 0.75947 1.8176 2.7698 5.0248 4.4675 7.1271 1.6977 2.1022 6.6072 9.0016 10.91 15.332 7.9805 11.741 9.9463 13.839 21.055 22.475 7.2844 5.6629 7.4718 5.7136 9.5263 2.5781 2.3879-3.6444 3.5261-3.0266 14.249 7.7344 12.535 12.579 26.891 24.16 48.741 39.317 5.9438 4.1232 2.827-2.653-6.236-13.557-5.991-7.2083-8.0886-10.666-12.357-20.369-16.453-37.404-26.777-52.458-40.836-59.547-6.7761-3.4162-6.6682-11.235 0.15501-11.235 2.332 0 1.4907-2.9277-2.2651-7.8822-3.539-4.6685-6.7164-10.474-13.785-25.187-3.0268-6.3007-4.2128-7.7617-8.7519-10.781-4.4338-2.9495-5.4919-4.2204-6.8012-8.1693-2.8412-8.5686-4.8696-8.0233-12.509 3.3629-9.61 14.31-23.91 11.72-23.91-4.35 0-4.1013-0.15241-4.3861-2.1094-3.9419-8.4967 1.9286-7.7844 2.0469-9.505-1.5789-1.9322-4.0718-1.1082-4.1158-7.1356 0.38123-15.154 11.307-27.128-6.8205-17.342-26.254 9.4068-18.679 26.331-28.971 44.011-26.762 6.3696 0.79583 7.3489-0.49554 3.4367-4.532-5.1733-5.3375-2.4821-7.7735 4.2375-3.8356 2.2542 1.321 4.625 2.3009 5.2684 2.1774 2.7034-0.51862 5.4609 1.4594 8.168 5.8589 7.3627 11.966 5.8523-1.7474-1.82-16.524-7.427-14.304-7.0309-13.938-15.658-14.504-5.5571-0.36488-7.3682-0.84532-8.1731-2.1681-1.6006-2.6304 2.5355-5.6624 6.6671-4.8872 4.7255 0.8865 4.947-2.0554 0.88051-11.695-0.95842-2.2719 0.78369-4.0733 3.3229-3.436 2.9854 0.7493 12.002 16.894 12.002 21.491 0 3.4718 6.687 14.758 8.7441 14.758 3.4832 0 4.7137-18.318 1.9034-28.334-3.5636-12.701 4.0028-15.031 14.552-4.482 2.3826 2.3826 5.8086 5.3246 7.6133 6.5376 7.882 5.298 12.865 12.921 17.725 27.115 1.1285 3.2959 2.6628 7.174 3.4094 8.6179 1.5721 3.04 2.1628 6.7187 6.9124 43.046 0.70493 5.3916 2.9557 11.538 4.5967 12.552 0.52806 0.32635 1.8609 3.2255 2.9618 6.4426 6.2416 18.238 17.832 34.954 17.832 25.717 0-4.375 2.1862-6.1936 4.7051-3.9141 1.0216 0.92451 1.8574 2.6042 1.8574 3.7326s0.84375 4.5041 1.875 7.5015 1.875 6.1808 1.875 7.0742 0.81072 2.6203 1.8016 3.8376l1.8016 2.2132-0.48415-5.625c-0.82749-9.614 2.9228-14.28 6.1184-7.6127 1.1931 2.4894 1.5066 5.0604 1.8713 15.347 0.17662 4.9826 2.0162 5.3039 2.0162 0.35225 0-17.71 18.097-29.449 31.11-20.18 9.7972 6.9783 15.673 27.448 11.679 40.688-3.6962 12.252-10.402 19.323-10.476 11.048-0.0524-5.8154-5.9429-3.324-6.0198 2.5461-0.11647 8.8934 5.9918 13.067 9.4697 6.4706 4.2282-8.0196 5.8303-5.8613 6.6792 8.9982 0.66459 11.633 0.98319 13.224 3.9423 19.688 3.1012 6.7733 6.1136 18.397 6.1152 23.595 0.00094 3.2185 0.87511 5.4673 2.1252 5.4673 0.68545 0 0.74398-7.9355 0.1919-26.016-0.84097-27.541-0.88192-30.364-0.60167-41.484 0.27937-11.086-0.68149-46.629-1.4689-54.337l-0.71445-6.9935-7.0312-1.0925c-4.6885-0.72848-8.5931-2.0294-11.719-3.9044-4.9805-2.9876-11.336-6.7741-17.524-10.439l-3.7741-2.2358-7.9823 1.5684c-4.3903 0.86262-9.2392 2.2183-10.775 3.0127-16.312 8.4355-27.94 3.6392-17.994-7.4227 2.3619-2.627 5.0607-6.2749 5.9974-8.1065 4.1444-8.1036 24.385-22.549 31.595-22.549 14.293 0 8.2719-14.283-6.1884-14.679-13.389-0.36661-32.948-14.002-41.226-28.741-2.419-4.3069-15.846-20.317-17.605-20.992-0.71067-0.27271-2.3965-2.4503-3.7464-4.8391-6.1485-10.881-16.483-22.529-22.463-25.318-7.4765-3.4866-9.4145-4.5423-12.708-6.9222-7.1995-5.2027-4.0975-11.159 4.1745-8.0159 7.2971 2.7727 9.7305 0.11195 5.0302-5.5-1.2207-1.4575-3.5573-5.3069-5.1923-8.5542-2.1711-4.3119-4.1494-6.7138-7.3356-8.9062-2.3995-1.6512-5.8638-4.2974-7.6983-5.8806-6.7592-5.8331-12.451-6.5023-12.063-1.4185 0.11956 1.5692-0.4858 3.5513-1.3896 4.55-0.9063 1.0015-1.6015 3.2838-1.6015 5.258 0 9.416-8.267 12.722-14.134 5.6526-1.7329-2.088-2.7302-1.5773-4.2883 2.1957-4.0606 9.8332-9.152 8.8521-15.678-3.0213-3.9778-7.2367-4.8678-16.199-2.2137-22.291 2.0265-4.6519 3.4316-4.455 3.344 0.46875-0.28681 16.128 7.7669 28.285 9.0058 13.594 1.1846-14.046 5.9793-18.398 10.071-9.1406 2.8914 6.542 4.9536 7.2827 5.8724 2.1094 0.34344-1.9336 1.7481-6.7364 3.1215-10.673 3.1376-8.9934 2.7954-9.4825-7.7859-11.129-8.7164-1.3559-9.479-1.805-7.9417-4.6774 2.7978-5.2278-19.825 1.0629-25.979 7.224-1.8007 1.8027-2.4508 1.9407-4.9836 1.0578-12.745-4.4428-17.774 29.47-6.1017 41.142 6.4186 6.4186 12.316 4.8252 9.996-2.7008-3.8078-12.351-0.10899-31.186 5.1011-25.976 1.2538 1.2538 1.2506 2.0177-0.02918 6.9312-2.1145 8.1182-1.9187 9.347 1.8429 11.566 2.2451 1.3246 3.2812 2.6202 3.2812 4.1028 0 1.1917 0.67793 3.1346 1.5065 4.3176 1.7745 2.5335-0.37475 5.6193-5.3491 7.6797-1.4959 0.61964-2.7199 1.4865-2.7199 1.9263 0 3.2422-8.8501 4.4451-13.865 1.8845-14.922-7.58-18.252-31.32-7.341-52.18 5.854-11.18 4.894-15.35-2.249-9.77-3.1275 2.4463-6.0117 2.2667-12.168-0.75769-5.5842-2.7434-6.1977-3.7962-10.485-17.992-5.4259-17.967 6.6985-41.178 21.542-41.241 2.8432-0.012 5.7977-1.6316 5.7977-3.1781 0-5.5736-18.387-9.926-29.443-6.9692-8.953 2.3946-22.363-15.718-14.682-19.829 2.6409-1.4134 2.6546-1.4064 7.5182 3.8559 5.0292 5.4415 8.0383 5.6812 4.7616 0.37939-2.3514-3.8046-2.5876-10.973-0.42075-12.771 2.2896-1.9002 4.1614-0.0804 5.9873 5.821 2.9886 9.659 5.1398 11.192 17.606 12.543 6.9492 0.75336 6.9457 0.76193 3.5156-8.7471-1.6466-4.5647-2.3438-8.4234-2.3438-12.972 0-7.2771-1.1839-9.74-5.5519-11.549-13.414-5.556-9.9341-33.753 5.6449-45.746 2.3136-1.7811 10.927-3.2602 18.188-3.1232 11.029 0.20794 11.901-3.3512 2.573-10.498-7.2013-5.517-7.6411-5.7068-18.979-8.1904-15.63-3.4238-19.061-5.9536-20.061-14.791-1.0846-9.5866 6.368-21.739 15.099-24.62 2.6918-0.88838 3.0876-1.4302 3.0876-4.2275 0-9.0738-18.754 4.6864-21.19 15.548-2.5245 11.255-2.6061 12.954-0.81241 16.932 2.9729 6.5928-2.5483 7.3814-6.7528 0.96448-2.5446-3.8836-1.3031-22.799 1.8057-27.511 8.6426-13.099 22.65-20.35 39.372-20.38 7.2902-0.0134 9.5364-2.9302 3.2812-4.2608-1.6758-0.35648-5.4997-1.4869-8.4976-2.512-4.4446-1.5198-6.9538-1.7674-13.594-1.3417-18.81 1.2061-26.471 1.2068-27.471 0.003-1.6897-2.036-0.49469-4.3938 3.6315-7.165 2.7939-1.8765 3.9776-3.3277 3.9776-4.8766 0-5.2176 2.887-6.8394 6.0174-3.3803 0.8913 0.98488 2.7239 2.0676 4.0725 2.4061 1.3486 0.33848 3.5324 1.3593 4.8529 2.2684 2.9695 2.0445 17.693 4.3986 19.047 3.0453 4.826-4.819-12.25-12.599-30.008-13.664-7.1523-0.429-9.6385-4.481-5.028-8.192 1.4875-1.1975 3.3921-3.5394 4.2325-5.2042 5.9172-11.722 36.168-15.793 53.22-7.1624 15.249 7.7186 20.572 10.882 22.016 13.086 0.87561 1.3364 3.593 3.7773 6.0387 5.4243s6.4315 5.4055 8.8573 8.3521c2.4258 2.9467 4.7408 5.3576 5.1442 5.3576 0.40348 0 1.8182 1.8508 3.1439 4.1128 1.3257 2.2621 3.7915 4.9482 5.4797 5.9693 1.6882 1.021 7.0772 5.6345 11.976 10.252 20.28 19.117 38.755 27.95 34.376 16.434-2.4554-6.456-2.399-7.1944 0.57507-7.536 1.9695-0.22621 3.3448 0.47913 5.625 2.8849 11.788 12.436 14.737 15.733 14.737 16.47 0 0.46102 1.3711 2.3673 3.0469 4.2363 1.6758 1.8689 4.0282 4.6701 5.2276 6.2249s2.7954 2.8268 3.5468 2.8268c0.75136 0 3.5436 1.1034 6.205 2.452 6.4069 3.2466 19.614 8.798 20.931 8.798 0.57471 0 3.3626 1.6236 6.1954 3.6079 2.8328 1.9844 6.231 3.8791 7.5516 4.2106 3.2997 0.82817 13.33 8.5079 16.878 12.923 4.8034 5.9772 4.1221 1.8514-1.877-11.366-8.2972-18.281-12.437-22.921-33.017-37.002-5.9297-4.0572-12.273-8.6996-14.097-10.316-6.4726-5.7394-13.634-9.077-22.185-10.34-10.203-1.507-11.724-3.2302-7.0098-7.9441 2.5066-2.5066 2.9752-2.6194 8.9062-2.1433 6.7323 0.54041 8.1244-0.59207 4.6198-3.7583-2.2272-2.0122-13.425-7.2442-15.506-7.2451-0.92288-0.0004-3.2457-0.80052-5.1618-1.778-7.702-3.9293-20.773-7.5145-25.4-6.9666-12.312 1.4582-21.801-12.111-16.395-23.447 1.4135-2.9641 1.4055-3.5422-0.11203-8.111-5.7366-17.271 0.67071-27.892 17.734-29.398 15.178-1.3391 32.117 10.043 32.388 21.762 0.0163 0.70494 1.5137 2.8143 3.3276 4.6875 21.834 22.548 23.161 23.636 24.161 19.812 0.71424-2.7312 2.4-2.2979 4.2251 1.0861 0.87836 1.6286 5.3137 6.7966 9.8564 11.484 4.5426 4.6878 11.029 12.457 14.415 17.264 7.3646 10.458 8.047 10.172 6.3362-2.6474-0.72254-5.4141-1.3228-12.647-1.334-16.074-0.0156-4.7783-0.66701-7.7497-2.7956-12.752-3.0592-7.189-2.8508-10.724 0.91438-15.511 2.5585-3.2526 2.2896-4.4283-3.476-15.195-1.1071-2.0674-3.1523-9.6689-3.7844-14.066-0.29033-2.0195 0.87592-5.4662 4.1239-12.188l4.5287-9.3717h5.9767c5.3533 0 6.1318-0.24444 7.4646-2.3438 3.4952-5.5054 10.147-11.25 13.026-11.25 1.5561 0 4.1612-0.26639 5.7892-0.59199 8.0911-1.6182 19.703 27.316 16.036 39.961-0.52225 1.8013-0.94953 4.3855-0.94953 5.7427s-1.1188 4.9459-2.4863 7.9749c-2.4121 5.3429-2.8734 8.1115-3.5012 21.014-0.16408 3.3722-0.78246 7.0359-1.3742 8.1415-1.2762 2.3846-1.4546 13.383-0.21711 13.383 1.0875 0 6.6413-6.9568 6.6413-8.3191 0-3.3706 3.1678-8.6384 5.0338-8.3708 2.7933 0.40052 2.9508 2.9074 0.55376 8.8134-1.6276 4.0101-1.9366 6.0703-1.4313 9.5423 0.35445 2.4354 0.72531 5.4827 0.82413 6.7717 0.97206 12.679 7.3455 20.326 6.642 7.9688-0.14676-2.5781-0.47152-10.172-0.72168-16.875-0.28949-7.7571-1.0026-13.714-1.9617-16.386-1.8511-5.1575-2.3549-14.273-1.2705-22.989 0.44907-3.6094 1.1776-10.896 1.619-16.192 1.5918-19.1 13.732-25.636 20.576-11.076 2.871 6.1077 4.8706 5.769 8.7566-1.4832 3.8462-7.178 8.7253-9.3665 15.191-6.8139 4.3863 1.7317 5.0444 1.2128 5.4265-4.2784 0.3699-5.3159 2.2218-5.5586 5.3639-0.70312 2.5866 3.997 3.9472 4.3016 7.3301 1.6406 6.6833-5.2571 8.244 0.06659 2.1094 7.1952-8.8611 10.297-6.8625 17.518 2.3382 8.4471 10.216-10.071 22.701-5.3409 18.408 6.9742-1.1043 3.1678-0.0203 6.446 2.1316 6.446 4.356 0 5.2982 8.4304 1.7273 15.455-2.2288 4.3846-12.593 15.482-14.46 15.482-0.92468 0-3.2645 1.415-5.1996 3.1445s-6.2694 4.4471-9.6318 6.0392c-8.0988 3.8347-9.2322 5.209-15.622 18.941l-5.4525 11.719-0.0494 9.375c-0.0522 9.9144-2.3534 17.761-7.1156 24.263-1.4682 2.0045-2.1778 4.9027-2.7546 11.25-0.42728 4.7024-1.0617 10.554-1.4099 13.003-0.7953 5.5944 0.0891 5.68 2.4233 0.23438 1.8877-4.4037 3.6127-5.2372 5.6811-2.7449 1.1804 1.4223 0.0426 8.6378-2.8952 18.361-2.3721 7.8507 3.7764 17.307 7.6845 11.818 1.1883-1.6688 2.8396-3.7132 3.6695-4.5431 0.82992-0.82992 2.9043-3.5778 4.6097-6.1064s3.774-5.3798 4.5969-6.3359c0.82291-0.95614 1.9183-3.4469 2.4343-5.535 1.33-5.3827 3.735-6.6076 6.4269-3.2735 2.6962 3.3394 3.0571 3.2804 7.1674-1.1719 2.2299-2.4154 4.2806-3.75 5.7622-3.75 2.2542 0 4.5503-1.5138 4.5503-3 0-0.4125-0.73828-0.76135-1.6406-0.77522-0.90234-0.0139-3.0235-1.174-4.7137-2.5781l-3.0731-2.5529 3.2567-9.2277c3.5709-10.118 5.5444-13.741 7.4848-13.741 1.9174 0 3.6723 5.1437 2.9921 8.7698-0.50763 2.7059-0.24593 3.4053 1.7677 4.7247 1.4486 0.94915 2.3636 2.4269 2.3636 3.8172 0 1.2477 0.88942 3.776 1.9765 5.6185 2.462 4.1728 1.8774 8.314-1.833 12.983-1.4416 1.814-3.1427 5.6291-3.7802 8.4781-0.63757 2.849-2.1791 6.5772-3.4255 8.285-1.2465 1.7078-3.379 5.316-4.7389 8.0183-1.4135 2.8086-5.0377 7.3127-8.4607 10.515-8.4652 7.9188-7.8717 9.3228 3.6262 8.5785 8.3018-0.53742 4.9429 5.462-6.5237 11.652-5.182 2.7975-10.686 6.7896-14.809 10.742-3.6094 3.4592-7.843 6.9491-9.4082 7.7552-1.5651 0.80611-3.4361 2.5689-4.1577 3.9173-1.5645 2.9233-10.334 10.314-15.16 12.776-1.8903 0.96438-4.638 3.1882-6.1058 4.9419-3.0085 3.5943-6.7327 5.7084-11.607 6.589-5.1429 0.9291-7.1456 2.8233-7.7721 7.3513-0.30587 2.2107-1.2456 7.3944-2.0883 11.519-3.0425 14.893-5.3689 36.666-4.1592 38.926 0.46071 0.86087 1.2697 9.1639 1.7978 18.451 1.274 22.407 2.4937 24.646 8.4064 15.431 3.3188-5.1718 3.5058-7.2398 1.4096-15.585-2.3409-9.3193 3.2023-25.676 11.267-33.247 1.3317-1.25 2.4212-2.9841 2.4212-3.8536 0-0.86941 1.0586-3.1408 2.3526-5.0474 1.2939-1.9067 3.2503-5.2351 4.3476-7.3964 1.0973-2.1614 2.7973-4.9568 3.7777-6.212 1.1708-1.4989 1.6018-3.1078 1.2558-4.6875-0.91696-4.1862 1.222-12.429 4.1807-16.111 1.5158-1.8862 3.2482-5.4804 3.8497-7.9871 1.8466-7.6949 4.8636-11.938 10.638-14.961 6.8311-3.5766 9.217-2.0774 7.2232 4.5387-5.6283 18.677-0.79059 30.391 8.4158 20.377 4.8388-5.2632 7.3962-5.5268 7.3962-0.76215 0 3.4108 1.1572 2.8192 4.3363-2.2168 1.3119-2.0782 4.8487-6.8169 7.8595-10.531 3.0108-3.7136 6.6665-9.2552 8.1236-12.315 1.9637-4.123 3.4597-5.9429 5.7807-7.0323 1.7222-0.80835 4.3378-3.3396 5.8123-5.625s3.7913-5.4209 5.1483-6.9678 3.3955-4.2891 4.53-6.0938 4.0144-4.3409 6.3998-5.636c6.9816-3.7906 13.885-13.537 13.885-19.604 0-0.94512 0.63281-3.2329 1.4062-5.084 4.877-11.672 0.64418-17.682-9.1079-12.931-3.2891 1.6024-7.437 3.1958-9.2174 3.541-6.8204 1.3224-19.643 14.69-19.643 20.478 0 0.7535-1.8604 5.941-4.1341 11.528-2.2738 5.5868-4.4277 12.116-4.7866 14.509-0.35887 2.3931-2.0078 6.4547-3.6642 9.0257s-3.5858 6.4143-4.2876 8.5407c-0.79988 2.4237-2.6123 4.9245-4.858 6.7031-1.9701 1.5604-3.582 3.483-3.582 4.2724 0 1.9359-6.4982 7.782-8.6501 7.782-3.6575 0-2.7382-2.8165 3.0424-9.3206 5.9595-6.7055 11.782-16.698 13.142-22.554 2.2527-9.7016 4.7773-18.133 6.3744-21.287 0.99025-1.956 2.1082-5.033 2.4844-6.8377 2.5252-12.115 15.737-26.645 25.901-28.486 4.4081-0.79837 6.8714-3.485 6.0813-6.6327-0.87351-3.4804-3.7648-3.0226-8.7775 1.3898-9.2037 8.1014-11.941 6.205-11.941-8.2735 0-9.7063-0.1015-10.205-2.9538-14.514-1.6368-2.4726-2.7572-5.2137-2.5129-6.1479 0.24248-0.92723-0.22128-2.2354-1.0306-2.9071-1.9865-1.6486-1.8522-3.4354 0.55023-7.3226 1.1119-1.7991 2.3356-4.802 2.7193-6.6732 0.3837-1.8711 1.606-6.7358 2.7161-10.81 5.018-18.417 0.83158-33.896-6.585-24.348-2.2843 2.941-5.6636 7.0705-7.5095 9.1768s-5.5476 7.6265-8.2261 12.267c-2.6785 4.6406-6.117 9.9181-7.6411 11.728-1.8336 2.1771-3.2858 5.5075-4.2925 9.8438-0.83678 3.6044-2.1729 8.241-2.9692 10.303-1.4012 3.6292-2.3309 7.5752-3.8654 16.406-0.9413 5.4169-7.1112 20.209-10.043 24.077-1.2434 1.6405-2.6844 4.097-3.2021 5.4588-0.62095 1.6332-1.4989 2.3605-2.5793 2.1367-2.3614-0.48923-1.8201-4.4087 1.626-11.773 2.4112-5.1527 10.937-31.09 15.478-47.087 3.5722-12.585 27.212-50.687 32.772-52.82 2.1178-0.81269 6.9262-8.7828 8.505-14.097 1.6176-5.4451 2.8744-7.1451 5.2824-7.1451 2.4024 0 3.0819 2.1523 1.8211 5.7689-1.6355 4.6916-2.4563 21.104-1.135 22.696 0.60958 0.7345 1.4221 3.1734 1.8056 5.4198 1.2039 7.0523 2.7161 5.6996 11.008-9.8471 1.5476-2.9017 2.6862-6.953 3.1352-11.155 0.73752-6.9024 3.191-10.622 6.2357-9.4535 1.856 0.71224 1.7077 3.1015-0.49398 7.9534-1.0199 2.2477-1.8637 5.6946-1.875 7.6598l-0.0206 3.5731 4.0381-0.60555c7.4992-1.1246 8.4889 3.685 1.4082 6.843-11.335 5.0554-17.826 18.209-7.5256 15.25 2.4326-0.69868 7.3761-1.6059 10.985-2.016 3.6094-0.41012 7.645-1.0114 8.9682-1.3361 5.5822-1.3701 18.367 4.7888 21.14 10.184 4.0878 7.9527 4.9222 14.562 2.3613 18.706-4.0269 6.5157-8.4788 8.4222-5.6325 2.4121 3.2-6.7569-0.92486-16.714-8.672-20.933-9.2168-5.0196-13.949-4.0962-27.927 5.4499-6.7046 4.5788-6.9956 4.9656-6.6748 8.8712 0.2359 2.8713-1.5525 4.8722-4.3547 4.8722-1.2542 0-5.1049 1.6775-8.5571 3.7277-9.966 5.9187-9.4315 5.2928-6.5974 7.7263 5.9106 5.0754 7.2755 10.444 6.1379 24.142-0.3988 4.8019 2.8246 3.3121 5.8649-2.7106 3.3922-6.7199 3.8846-12.725 1.539-18.767-2.8762-7.4088 0.7909-12.209 3.8089-4.9858 0.80608 1.9292 2.4611 4.6907 3.6777 6.1367 2.7634 3.2841 6.1964 14.134 5.4337 17.173-1.2402 4.9412 4.0588 6.6968 8.7084 2.8853 1.4575-1.1948 4.0753-2.745 5.8172-3.4448l3.1672-1.2724-0.54228-5.6958c-0.79664-8.3674-4.6731-18.3-8.3082-21.288-3.3426-2.7475-2.3552-6.4482 2.0974-7.8614 3.54-1.12 21.48 11.55 21.48 15.21 0 2.512-4.6121 2.4736-8.2809-0.0688-5.467-3.7886-6.2984-1.9478-3.3379 7.3915 3.0688 9.6809 3.2044 11.027 1.6064 15.938-0.83895 2.5781-2.1431 5.6384-2.898 6.8007-1.1347 1.7468-1.1815 2.8724-0.2701 6.4919 1.4018 5.5672 0.54487 10.655-2.8761 17.074-6.4169 12.041 2.0974 10.337 11.2-2.2414 9.2825-12.827 19.583-17.729 12.36-5.882-3.3699 5.5271-2.7268 6.5495 3.9809 6.3283 8.0103-0.26414 8.2031-0.22112 8.2031 1.8294 0 4.6605-7.1804 7.3549-14.113 5.296-7.0194-2.0846-7.9536-1.9202-11.903 2.0944-1.933 1.9648-6.2568 5.2343-9.6083 7.2656l-6.0938 3.6932 3.75 0.3161c2.0625 0.17387 5.9283-0.20115 8.5907-0.83338 15.473-3.6744 33.877 4.2971 39.741 17.214 3.2133 7.0776 1.2743 18.918-3.7906 23.147-2.0122 1.6802-3.3588 4.2018-4.7561 8.9062-3.2288 10.87-4.5666 13.351-8.1068 15.031-1.7812 0.84522-4.7255 2.5459-6.543 3.7792-3.9803 2.7011-4.7093 2.4257-13.228-4.9975l-5.9057-5.146-2.1235 1.9949c-4.6503 4.3687-5.4235 2.0345-2.3449-7.0796 2.0133-5.9604 2.3405-6.2749 6.2016-5.9622 5.485 0.4443-1.3417-12.952-9.1942-18.043-2.8862-1.871-14.009-3.2503-14.009-1.7373 0 0.57777 1.5106 3.0294 3.3568 5.4481l3.3568 4.3976-0.65728 11.884c-0.73244 13.244 0.004 14.962 6.4086 14.962 6.2647 0 2.4854 3.2618-4.1189 3.555-7.5369 0.3346-10.576-1.5047-10.733-6.4963-0.43602-13.851-0.32246-13.814-10.33-3.3868-15.593 16.246-16.946 19.63-6.9972 17.496 5.4798-1.1752 9.4019-0.54123 9.4019 1.5197 0 1.6002-5.2873 5.1158-7.7018 5.1211-0.88441 0.002-2.9938 1.2024-4.6875 2.6678-1.6937 1.4653-6.1483 4.443-9.8991 6.6171-4.3519 2.5225-7.6255 5.2053-9.0468 7.4139-1.225 1.9036-4.632 5.7813-7.5711 8.6173-2.9391 2.8359-6.4162 6.8438-7.7269 8.9062-1.3106 2.0625-4.2006 5.6484-6.4222 7.9688-2.2216 2.3203-6.1092 6.4336-8.6393 9.1406-3.2741 3.5032-5.3048 4.9219-7.0448 4.9219-1.4468 0-2.8359 0.7309-3.403 1.7905-0.59897 1.1192-2.4568 2.0357-4.9549 2.4445-7.3986 1.2106-18.158 7.6028-22.557 13.401-7.5278 9.9224-10.117 11.562-10.809 6.8453-0.35402-2.4128-2.702-2.3704-4.2429 0.0766-1.4403 2.2873 2.1448 13.283 4.4773 13.732 1.6073 0.30956 10.854-8.2267 10.854-10.02 0-1.2496 16.1-16.834 20.892-20.222 10.428-7.3745 22.796-11.563 43.326-14.672 6.7031-1.0152 14.647-2.4713 17.654-3.2357 3.0065-0.76444 6.4409-1.3899 7.632-1.3899 3.1333 0 8.5309-2.6593 15.495-7.6342 3.3516-2.3941 8.4141-5.7116 11.25-7.3722s6.9398-4.6589 9.1197-6.6627c4.1008-3.7697 4.7152-4.0317 7.2099-3.0744 2.3632 0.90685 1.7725 2.4765-2.7995 7.439-4.7845 5.1931-14.468 19.171-14.468 20.884 0 1.5545 0.53678 1.422 5.1202-1.2641 2.3764-1.3926 7.2842-2.9344 11.886-3.7337 15.385-2.6726 25.882-5.8584 31.96-9.6999 1.6858-1.0654 5.0088-2.9841 7.3845-4.2637s5.5398-3.342 7.0312-4.583c3.738-3.1103 5.6549-3.9844 11.618-5.2981 2.8359-0.62474 6.8438-1.7941 8.9062-2.5987 5.7811-2.2551 27.132-2.8248 31.406-0.83796 13.827 6.4282 18.651 14.252 15.791 25.612-1.518 6.0287-0.10961 6.9435 9.5442 6.199 6.6982-0.51652 7.353-0.40776 8.3099 1.3802 1.6552 3.0928-1.1039 5.2298-5.7859 4.4811-4.8122-0.76951-6.5206 0.59931-5.7663 4.6202 0.71162 3.7932-1.4143 4.9124-4.9414 2.6014-2.5401-1.6644-10.823-5.3304-15.845-7.0127-3.058-1.0245-8.2562 0.56239-8.3118 2.5374-0.0145 0.51562 6.0769 4.0048 13.536 7.7538 25.446 12.789 32.808 28.22 19.894 41.699-6.5603 6.8474-11.327 4.1291-5.335-3.0426 8.6549-10.359-0.99724-26.36-20.376-33.779-6.345-2.429-8.214-2.016-8.214 1.8148 0 3.6597-1.1774 4.2436-4.7899 2.3755-2.2434-1.1601-3.4882-1.2997-5.088-0.5708-1.7186 0.78304-2.7009 0.53503-5.2084-1.315-1.6997-1.254-3.8731-2.28-4.8298-2.28-0.95668 0-3.0326-0.66871-4.6131-1.486-4.7903-2.4772-5.6341-0.12418-1.3595 3.7912 6.5518 6.0012 0.95984 7.3771-5.8814 1.4472-7.198-6.2392-8.5423-7.7276-8.5423-9.4578 0-1.8942-3.2796-4.7339-7.4736-6.4711-1.6821-0.69675-3.0944-2.1084-3.4243-3.4228-0.3088-1.2304-1.2527-2.6296-2.0974-3.1095-4.5309-2.5736 0.92798-3.8808 17.531-4.1982l16.088-0.30758 3.3686-2.6895c11.694-9.3364 20.692-11.906 27.391-7.8218 5.1366 3.1317 6.3851 0.59124 2.8236-5.7455-1.123-1.9982-2.8128-3.8777-3.7551-4.1768-0.94223-0.29906-3.0574-1.6748-4.7004-3.0571-4.5156-3.7991-22.321-3.3356-31.486 0.81957-3.3489 1.5185-6.7121 2.7608-7.4738 2.7608-0.76168 0-4.2884 1.9302-7.8371 4.2894s-9.9336 5.796-14.189 7.6374c-4.255 1.8414-8.6976 3.9754-9.8724 4.7421-1.1863 0.77424-4.5211 1.4444-7.5 1.5073-2.9502 0.0623-5.7858 0.37232-6.3014 0.68908-0.51563 0.31674-2.625 1.1053-4.6875 1.7523-2.0625 0.64701-8.0328 3.395-13.267 6.1067-5.2346 2.7116-11.668 5.4815-14.297 6.1552-4.7369 1.214-6.1535 2.9551-3.2965 4.0514 2.7091 1.0396 5.5454 0.59463 14.301-2.2434 12.491-4.0488 14.124-3.6911 7.9801 1.7481-4.4216 3.9146-3.341 5.1597 3.3731 3.8864 6.5194-1.2364 6.6177-1.226 6.582 0.69364-0.0284 1.5248-1.2298 2.318-10.048 6.6338-1.6758 0.8202-3.0469 1.8252-3.0469 2.2334 0 1.0134 2.5783 0.94203 3.2156-0.0891 0.28254-0.45718 1.9825-1.1068 3.7777-1.4436 1.7952-0.33678 4.5525-1.6966 6.1274-3.0217 2.4829-2.0892 3.4162-2.3265 7.0232-1.7856 4.4819 0.6721 6.8845-0.15651 10.794-3.7225 1.2891-1.1759 3.1826-2.2894 4.208-2.4743 1.0253-0.18496 2.0181-1.1752 2.2062-2.2005 1.3772-7.5085 6.3028-6.1591 8.8988 2.4377 0.24737 0.81921 2.8996 2.6494 5.8939 4.0672 14.254 6.7489 22.349 16.384 21.726 25.861-0.26908 4.0946-0.19793 4.2152 2.6507 4.4924 3.4692 0.33759 4.5172-1.4198 3.0883-5.1783-1.4277-3.7551-0.33907-7.0158 2.2208-6.6518 2.1024 0.29895 3.8521 4.4996 5.965 14.32 0.72284 3.3597 1.1487 3.7848 4.4817 4.4732 4.6523 0.96091 5.433 0.15233 4.192-4.342-1.2542-4.5422-0.0697-6.156 3.2244-4.3931 2.2079 1.1816 5.3069 6.4158 5.3069 8.9634 0 2.6794 1.9554 2.4164 2.9354-0.3947 0.55652-1.5964 1.8112-3.3304 2.7882-3.8533 2.5811-1.3814 2.1803-4.8062-1.0361-8.8535-4.1697-5.2468-2.8938-7.5199 2.8788-5.1288 5.9917 2.4818 8.1379 11.354 4.1632 17.211-1.2832 1.8909-2.975 4.6794-3.7597 6.1968-1.576 3.0477-4.1419 4.7431-7.7835 5.1428-1.3163 0.1445-2.8459 0.85537-3.3991 1.5797-0.55322 0.72435-2.3199 2.2388-3.9259 3.3655-2.9889 2.0968-7.474 10.765-6.4377 12.442 1.8668 3.0205 11.904-1.4947 22.32-10.041 2.8739-2.3579 6.1893-2.8799 6.3673-1.0024 0.27913 2.9447-0.46665 4.2497-4.5976 8.0451l-4.4197 4.0607 2.1094 1.4442c2.2021 1.5077 2.7477 3.5229 1.2109 4.4727-0.49417 0.30541-4.5017 0.10754-8.9057-0.43973-9.4648-1.1761-15.515 0.6313-20.96 6.2615-4.2258 4.3697-3.5471 5.3556 4.1195 5.9846 3.5684 0.29277 7.9278 1.2884 9.6876 2.2124 6.0116 3.1567 12.945 5.034 21.103 5.7135 12.495 1.0408 21.468 7.1216 26.823 18.176 5.1354 10.601 0.23794 25.354-9.2035 27.723-1.2268 0.30792-3.7785 1.5816-5.6704 2.8304-9.5143 6.2802-17.975 5.9008-23.271-1.0435-2.5293-3.3161-2.6902-3.3763-7.5074-2.8101-4.76 0.55-9.69-2.14-9.69-5.29 0-0.39199-0.42188-0.71271-0.9375-0.71271-0.51563 0-0.9375 1.0308-0.9375 2.2906 0 7.8922-14.16 6.5506-18.55-1.7574-8.7912-16.639-10.762-17.059-22.661-4.8291-2.2988 2.3627-4.6592 4.2959-5.2453 4.2959-0.58617 0-1.794 0.80474-2.6842 1.7883-0.89012 0.98357-3.8032 2.716-6.4734 3.8498-2.6703 1.1338-5.6988 2.79-6.73 3.6804s-3.9096 2.3686-6.3962 3.285c-8.3187 3.0655-10.946 7.8598-11.332 20.678-0.15733 5.2298 12.098 2.3424 15.294-3.6033 3.1449-5.851 5.4879-7.2713 7.9438-4.8154 1.2589 1.2589 1.2667 1.8736 0.0669 5.2741-2.123 6.017-1.8338 6.9254 2.6263 8.2493 6.7771 2.0117 9.6068 6.5562 3.2812 5.2697-7.417-1.5084-9.1958-1.5954-12.22-0.59729-2.3203 0.76576-3.9498 0.78031-5.8644 0.0523-5.0459-1.9185-15.923 1.7885-11.355 3.8699 3.5685 1.6259 2.6875 7.4762-1.6706 11.093-3.7384 3.1026-1.8729 4.54 6.7351 5.1893 15.478 1.1676 23.639 4.2281 39.331 14.75 5.9059 3.9599 15.858 25.193 14.73 31.425-1.1108 6.1345-7.3401 14.313-10.902 14.313-0.58998 0-2.4245 1.4759-4.0768 3.2797-2.5095 2.7398-3.4555 3.1894-5.746 2.7313-3.8262-0.76524-14.092 4.9903-18.503 10.374-10.608 12.946-25.593 5.0298-25.147-13.284 0.13801-5.6652-0.15165-9.7926-0.71151-10.139-3.2382-2.0013-7.759 5.1086-8.9316 14.047-0.66146 5.0423-3.124 10.632-5.583 12.673-1.7184 1.4262-4.2254 5.9028-4.2254 7.5452 0 0.68085 1.6202 0.99486 4.4531 0.86308 2.4492-0.11394 4.9805-0.15272 5.625-0.0862 3.2304 0.3335-0.67367 7.856-4.712 9.0792-2.8631 0.86726-11.889 7.7122-14.73 11.171-1.2831 1.5619-3.4328 3.8975-4.7773 5.1903-1.3444 1.2928-3.2984 4.2459-4.3422 6.5625-1.0437 2.3166-3.2182 5.4511-4.8321 6.9656-1.6139 1.5144-2.9344 3.3378-2.9344 4.0518 0 1.6173-4.3672 9.3611-6.8487 12.144-2.1235 2.3813-2.1952 2.5023-9.0888 15.34-2.9125 5.4239-7.196 11.731-9.8438 14.493-2.5781 2.6899-7.4297 7.9454-10.781 11.679-3.3516 3.7334-6.6697 7.3902-7.3736 8.1261-0.70392 0.73596-3.7185 2.5691-6.699 4.0737-7.4628 3.7672-10.446 7.602-18.409 23.662-5.1544 10.396-0.51834 10.811 9.7452 0.87341 3.2214-3.1192 8.0128-6.8445 10.648-8.2785 5.0826-2.7664 6.4641-4.9677 6.4641-10.301 0-5.7772 10.155-14.919 22.5-20.254 5.4141-2.34 14.987-6.5976 21.274-9.4614 6.2865-2.8637 13.107-5.6583 15.156-6.2102 2.0495-0.55187 4.9216-1.6268 6.3825-2.3888 1.4609-0.76194 3.1318-1.3879 3.7132-1.3911 0.58139-0.003 1.6361-0.70714 2.3438-1.5644 0.70766-0.85723 3.1135-2.3685 5.3463-3.3584 5.6779-2.5172 14.248-10.423 17.034-15.713 4.0844-7.7556 8.6274-11.275 12.132-9.3994 4.0002 2.1409 3.0262 7.4151-2.6791 14.507-3.1459 3.9106-3.5074 7.3273-0.82924 7.8376 1.409 0.26847 3.6853-1.2216 14.152-9.2644 1.441-1.1073 4.753-2.8237 7.3601-3.8143 2.607-0.9906 6.7929-2.8413 9.302-4.1128 2.509-1.2714 5.1974-2.3117 5.9742-2.3117 0.77679 0 3.2166-0.8032 5.4218-1.7849 9.0763-4.0405 17.506-6.5947 23.669-7.1717 6.0871-0.56993 13.511-3.9767 14.712-6.7513 1.2482-2.883 29.251-19.625 36.492-21.817 3.0432-0.92139 6.8334-2.7694 8.4226-4.1067 3.7974-3.1953 6.7902-3.8576 11.311-2.5033 8.2302 2.4658 6.7966 7.8251-5.3148 19.868-10.447 10.387-10.462 11.492-0.12073 8.7983 7.8309-2.0397 17.196-0.63076 23.823 3.5841 3.4811 2.2139-0.0466 10.01-4.5295 10.01-2.0754 0-3.0002 0.57247-3.639 2.2527-1.8849 4.9576-5.9498 4.1005-8.4733-1.7867-3.2021-7.4703-14.305-8.1591-20.837-1.2927-4.9168 5.1687-4.6758 6.4517 1.2121 6.4517 5.5107 0 8.3759 1.241 8.3759 3.628 0 0.92787 1.3117 2.8558 2.9149 4.2842 4.512 4.0202 1.994 6.1837-4.488 3.8563-7.9911-2.8693-13.305-3.8281-14.514-2.6188-1.809 1.809 0.51966 3.5358 7.8928 5.853 8.1662 2.5664 16.726 7.3341 23.951 13.341 2.9356 2.4406 9.2623 6.4007 14.059 8.8002 15.09 7.548 22.74 14.668 22.906 21.32 0.0941 3.7645-1.26 12.173-2.0589 12.786-0.3364 0.25781-2.2049 3.4219-4.1521 7.0312-5.2137 9.6638-6.2096 10.484-11.108 9.1461-3.8127-1.0411-4.2459-0.93833-9.4469 2.2417-8.5271 5.2136-18.145 7.2229-23.845 4.9813-2.4498-0.96344-5.625-1.9927-7.0559-2.2873-3.5418-0.72915-9.4855-6.2837-11.654-10.891-1.1467-2.4365-3.0926-4.5225-5.4546-5.8474-7.9147-4.4396-9.9479-12.475-5.992-23.683 4.3594-12.35 3.804-13.081-9.8348-12.935-7.2021 0.0773-10.583 0.55934-14.151 2.0178-9.2894 3.7976-12.737 4.9123-15.253 4.9318-1.4075 0.0109-5.5123 1.1023-9.1216 2.4253-3.6094 1.3231-8.25 2.7608-10.312 3.1949-7.5619 1.5917-8.6704 2.8985-5.1562 6.0788 3.9984 3.6185 0.559 7.681-7.6177 8.9978-3.2115 0.51719-6.1974 1.1618-6.6354 1.4325-0.43797 0.27067-3.211 0.62406-6.1622 0.78531-2.9513 0.16124-7.0534 0.92527-9.116 1.6978-2.0625 0.77256-6.4922 2.3491-9.8438 3.5035-3.3516 1.1543-8.2031 3.1107-10.781 4.3474-2.5781 1.2367-7.0078 2.7067-9.8438 3.2667-2.8359 0.56-7.0547 1.3956-9.375 1.8568-2.3203 0.46128-6.75 1.2306-9.8438 1.7096-3.0938 0.47898-7.1016 1.3512-8.9062 1.9383-9.0869 2.9561-38.181 1.9584-45.188-1.5495-3.3754-1.6899-6.0459-1.6014-6.7462 0.22343-0.86647 2.258-0.0217 2.9569 4.833 3.9988 6.2044 1.3316 21.397 7.2396 24.936 9.6967 2.7822 1.932 7.793 6.2274 20.111 17.24 8.724 7.7993 15.094 11.455 23.948 13.744 8.7688 2.2668 9.745 3.1913 7.6493 7.2439-2.3257 4.4974-5.4516 6.2516-12.383 6.949-7.3046 0.73497-13.766 2.3632-17.16 4.3244-2.6521 1.5323-8.4279 3.2697-15.769 4.7432-7.4425 1.4939-30.874-1.9217-44.7-6.516-7.3543-2.4437-19.792-8.1294-20.583-9.4091-3.5826-5.7967-7.0672 2.3285-7.0946 16.542-0.0117 6.0752-0.45203 16.319-0.97851 22.764-0.87243 10.68-1.437 34.751-1.88 80.156-0.0943 9.6662 0.29013 19.057 0.89993 21.983 0.78282 3.7565 0.78971 5.9413 0.0261 8.2553-0.6209 1.8813-0.79985 5.6706-0.445 9.4227 0.32644 3.4518 0.75146 11.702 0.94447 18.334 0.45316 15.57 0.21166 15.521 12.009 2.4279 11.853-13.155 14.176-16.624 23.565-35.195 7.6805-15.192 12.24-21.009 16.467-21.009 3.8954 0 6.0107 2.9058 5.2588 7.2238-0.3407 1.9566-0.75484 9.2558-0.92031 16.22-0.26 10.943-0.57197 13.108-2.297 15.937-1.0979 1.801-1.9964 4.3292-1.9966 5.6183-0.00026 1.2891-0.61829 6.5625-1.3734 11.719-0.75511 5.1563-1.8774 13.172-2.4939 17.812-0.61653 4.6407-1.6198 9.4922-2.2295 10.781-0.60965 1.2891-1.8476 5.7187-2.751 9.8437-0.90342 4.125-2.2684 9.4969-3.0333 11.938-0.83697 2.6706-1.291 7.1501-1.1402 11.25 0.47144 12.819-3.9256 25.526-16.985 49.084-7.7716 14.019-11.248 18.005-19.551 22.416l-5.2932 2.8125-0.13695 25.781c-0.13642 25.68-1.1828 71.331-1.8803 82.031-0.20165 3.0937-0.42037 6.6796-0.48602 7.9687-0.0656 1.2891 0.19344 10.57 0.57577 20.625 0.92758 24.394 0.81175 44.42-0.29007 50.156-0.5835 3.0376-0.56272 9.802 0.0591 19.219 1.12 16.963 1.5377 84.799 0.54115 87.891-0.72447 2.2476-4.3971 2.9993-4.5807 0.9375-0.0574-0.6445-0.25189-2.6484-0.43221-4.4531-1.1173-11.182-1.9842-48.554-2.7508-118.59-0.27093-24.75-0.83272-51.14-1.2484-58.644-0.41569-7.5044-0.48863-16.364-0.16209-19.688 0.32654-3.3238 0.47335-26.917 0.32625-52.43l-0.26747-46.387 3.015-3.1107c2.6829-2.768 3.4033-3.045 6.5402-2.515 10.058 1.6993 22.83-14.139 29.138-36.132 0.81328-2.8359 2.3433-7.8749 3.4001-11.198 1.0568-3.3228 1.9214-7.2414 1.9214-8.7081 0-3.4813 5.1551-28.491 6.6217-32.125 0.62426-1.5469 1.4456-4.5 1.8251-6.5625 0.37955-2.0625 2.0076-10.289 3.6178-18.281 1.6103-7.9922 2.9294-16.398 2.9315-18.679l0.004-4.1478-2.3924 2.2475c-2.3162 2.176-6.0451 9.3458-6.0451 11.624 0 0.6151-1.4223 2.7799-3.1606 4.8107-1.9599 2.2898-3.4155 5.201-3.8314 7.6631-0.9291 5.4993-13.639 35.252-17.26 40.404-0.96043 1.3666-2.0285 4.4134-2.3734 6.7707-0.34494 2.3574-1.9135 7.6308-3.4857 11.719-1.5722 4.0879-4.8645 13.339-7.3163 20.558-7.2967 21.484-11.049 27.394-14.929 23.515-1.4034-1.4034-1.4037-1.8302-0.003-5.487 2.5861-6.7502 9.7153-23.243 13.872-32.09 2.18-4.6407 4.5688-10.708 5.3084-13.484 0.73956-2.7755 1.9366-6.1505 2.6601-7.5 2.9146-5.4367 13.713-30.37 18.929-43.704 2.1763-5.5644 3.776-8.7152 7.8536-15.469 2.0236-3.3516 4.3669-7.5703 5.2074-9.375 0.84048-1.8047 2.218-4.0567 3.0611-5.0045 0.84309-0.9477 1.8316-4.3227 2.1967-7.5 1.0487-9.1266 1.8101-11.937 4.1804-15.43 2.52-3.74 2.97-8.61 0.76-8.61-1.6658 0-5.605 5.9308-8.7567 13.184-6.112 14.066-7.3379 16.276-10.273 18.515-1.7122 1.3061-4.1285 4.3786-5.3696 6.8279-2.1947 4.331-9.8787 12.72-14.362 15.681-1.221 0.8061-2.9617 3.1775-3.8683 5.2698-0.90658 2.0922-3.1239 5.9822-4.9274 8.6445-2.3275 3.4357-3.4699 6.3674-3.9365 10.102-0.54906 4.3945-1.1268 5.6054-3.5058 7.347-3.3637 2.4626-11.016 13.813-12.098 17.943-0.41648 1.5905-1.6082 5.2123-2.6482 8.0482-1.2123 3.3056-1.902 7.5346-1.9216 11.783-0.0169 3.6447-0.67197 8.7864-1.4558 11.426-1.4903 5.0184-1.4063 23.235 0.11849 25.702 0.40895 0.6617 0.82682 6.0641 0.92862 12.005 0.10179 5.9413 0.45912 23.88 0.79407 39.865 1.0659 50.869 1.2929 63.808 1.834 104.53 0.29114 21.914 0.78511 45.539 1.0977 52.5 0.80352 17.893 1.4188 103.82 0.77373 108.05-0.6235 4.0885-1.9097 4.401-4.7535 1.1549zm11.057-396.31c2.8928-4.6915 4.286-13.334 4.4956-27.889 0.078-5.4141 0.32596-16.594 0.55109-24.844 0.22512-8.25 0.64684-35.461 0.93716-60.469 0.29031-25.008 0.97241-52.852 1.5158-61.875 0.54336-9.0234 0.91633-21.047 0.82883-26.719-0.0875-5.6719 0.13433-12.903 0.49296-16.069 0.62382-5.5073 0.49909-6.0145-2.8817-11.719-4.2241-7.1272-5.361-14.328-2.8641-18.139 2.3641-3.608 4.3123-3.041 4.3123 1.2552 0 5.3404 1.7416 9.3978 4.688 10.921 1.4354 0.74226 3.9047 2.9846 5.4875 4.9831 3.517 4.4406 25.842 16.09 32.78 17.105 2.4137 0.35311 8.6072 1.4242 13.763 2.3801 12.98 2.4065 28.429 1.2463 35.625-2.6754 1.0312-0.56204 3.1004-1.2748 4.598-1.584 4.9092-1.0133 5.3143-3.5533 1.1072-6.9414-2.0184-1.6255-6.8992-6.1194-10.846-9.9866-8.717-8.5405-16.511-14.786-21.825-17.488-8.1497-4.1442-15.32-7.187-18.502-7.8512-1.8047-0.37671-6.5199-1.3792-10.478-2.2278-5.4279-1.1637-8.5132-1.3365-12.551-0.70329-2.9449 0.46181-6.0585 0.65548-6.9193 0.4304-2.2535-0.58931-6.1294 2.8066-5.3931 4.7252 0.41369 1.0781 1.7142 1.5523 4.2572 1.5523 2.0138 0 5.4551 0.63281 7.6473 1.4062 2.1922 0.77344 5.3038 1.4177 6.9148 1.4316 1.611 0.014 5.87 1.2796 9.4644 2.8125 3.5945 1.5329 7.0834 2.7871 7.7531 2.7871 3.0712 0 18.8 9.0092 23.614 13.525 6.0288 5.6564 11.179 8.9749 13.929 8.9749 6.1547 0 6.8325 4.0916 0.94056 5.6781-6.0648 1.6331-10.056-0.0219-17.432-7.2293-6.4462-6.2981-10.424-8.552-23.984-13.589-4.0671-1.5108-8.2742-3.3629-9.3492-4.1159-1.075-0.75294-3.2857-1.369-4.9127-1.369s-4.4727-0.63281-6.3238-1.4062c-1.8511-0.77344-5.1722-1.4166-7.3801-1.4292-9.3019-0.0531-15.447-2.6341-13.763-5.7808 1.4437-2.6976 0.2531-3.244-2.9482-1.353-3.1942 1.8868-6.0468 1.3598-7.5179-1.3892-0.54643-1.021-2.0108-2.2431-3.2541-2.7158-1.2433-0.47271-2.529-1.9291-2.8571-3.2364-0.71583-2.8521-1.8659-3.0794-2.5399-0.50191-0.76625 2.9301-4.2669 2.4286-4.9073-0.70313-0.28996-1.418-1.1384-3.6328-1.8855-4.9219-0.74703-1.2891-3.0891-5.9185-5.2046-10.288-2.1155-4.3691-5.2121-10.064-6.8814-12.656-1.6693-2.5918-4.3773-6.8218-6.0177-9.3999-6.0361-9.4864-9.5312-12.09-11.705-8.7176-0.8247 1.2792-0.43001 2.3924 1.9944 5.625 6.75 9.0001 10.478 16.857 10.491 22.108 0.0111 4.4028 0.37693 5.3177 3.2936 8.2344 1.8047 1.8047 3.2812 3.663 3.2812 4.1296 0 0.46662 1.2879 2.2455 2.8621 3.9531 2.1951 2.3812 2.7257 3.6509 2.2769 5.4485-1.8401 7.3693-1.7202 8.218 1.3878 9.8252 1.834 0.94839 2.8518 2.1206 2.6683 3.0731-0.47585 2.4708-17.633 2.3878-17.633-0.0854 0-1.5031-0.5181-1.6487-3.9844-1.1195-6.3214 0.96516-8.9377 2.339-10.95 5.75-1.5218 2.5792-2.4599 3.1854-4.9556 3.2021-3.3062 0.0221-10.399 2.8595-11.467 4.5871-1.5361 2.4854-11.768 6.674-11.768 4.8174 0-0.96322 9.4982-7.5501 10.887-7.5501 1.6674 0 3.4135-3.8875 2.2604-5.0324-0.7967-0.79106-2.2489-0.40479-5.7025 1.5168-2.5484 1.418-5.526 2.5781-6.6168 2.5781-3.3555 0-11.017 6.3804-13.467 11.215-1.2361 2.4394-3.1128 5.449-4.1703 6.6882-7.0075 8.2106-11.351 18.089-8.9911 20.449 1.1362 1.1362 1.5739 1.1363 3.1293 0.00024 5.2428-3.8293 11.261-8.4371 17.157-13.136l6.5909-5.253 13.29-1.0945c7.3093-0.60199 15.832-0.82457 18.94-0.4946 12.333 1.3094 26.614-3.6938 29.969-10.499 5.1873-10.521 8.5514-12.151 11.9-5.7648 1.9241 3.6689 3.0511 46.506 1.2982 49.343-0.19981 0.32331-0.65682 9.8486-1.0156 21.167-0.35874 11.319-0.9607 21.442-1.3377 22.496-0.37697 1.0539-0.40624 4.8694-0.0651 8.4788 0.34121 3.6094 0.32011 9.5156-0.0469 13.125-0.36699 3.6094-0.43888 15.211-0.15977 25.781 0.65389 24.763 0.64766 32.678-0.0539 68.672-0.62993 32.317-0.47995 33.254 4.1288 25.78zm-61.05-37.9c0-0.8279-1.0355-2.736-2.3012-4.2401-1.2656-1.5041-3.2206-5.2564-4.3444-8.3384-2.8599-7.8435-6.2585-7.3117-3.7363 0.5845 0.47751 1.4949 1.1278 4.6659 1.445 7.0467 0.66349 4.9789 8.9368 9.559 8.9368 4.9473zm352.04-228.76c0.96141-0.96141 1.3274-2.2908 0.96798-3.5156-2.9735-10.132 1.0248-12.638 5.2495-3.29 2.8684 6.3467 3.8601 6.1165 11.138-2.5864 1.2989-1.5532 2.9731-3.0277 3.7205-3.2769 2.1501-0.71668-0.58758-7.982-4.7489-12.603-6.0298-6.6958-6.7504-10.699-1.9216-10.674 1.8491 0.009 9.8291 8.6336 12.662 13.685 4.1701 7.4341 8.6137 2.3493 5.7906-6.6262-1.8053-5.7395-1.8483-5.7802-14.583-13.789-3.3516-2.1076-8.234-5.2542-10.85-6.9924-2.6159-1.7382-5.1305-3.1603-5.5881-3.1603-0.45762 0-5.3558-2.1382-10.885-4.7515-7.1763-3.3919-10.943-4.6662-13.162-4.4531l-3.1089 0.2984 0.32867 7.5661c0.33748 7.7691-0.45854 11.362-4.4514 20.09-4.6808 10.232 1.1792 21.288 7.9246 14.951 2.0263-1.9036 2.2918-2.9489 2.2918-9.0209 0-8.0647 3.021-9.9974 6.1547-3.9375 1.5846 3.0643 1.5208 4.9264-0.58542 17.07-1.8216 10.503 7.699 20.972 13.655 15.016zm-291.29-12.06c0.46659-18.599 0.64975-49.709 0.32832-55.768-0.20908-3.9416-1.2122-63.64-1.2287-73.125-0.008-4.8984 0.38091-15.864 0.86542-24.367 0.54734-9.6063 0.54941-20.387 0.006-28.47-0.96019-14.268-0.30901-17.084 3.0112-13.022 3.273 4.0038 5.1515 173.43 2.0114 181.42-0.83632 2.1276-0.68565 3.1277 0.84748 5.625 1.4475 2.3579 1.7312 3.9467 1.2681 7.1024-1.5438 10.521 6.7168 1.1456 8.9378-10.144 1.5315-7.7853 2.9848-9.3904 8.5022-9.3904 10.088 0 25.161-9.3441 31.003-19.219 1.22-2.0625 4.1365-5.4902 6.4811-7.6171s8.9002-10.691 14.568-19.031c21.795-32.071 25.596-37.558 27.99-40.403 5.3182-6.3203 1.7443-6.3096-6.6166 0.0198-3.4056 2.5781-6.958 4.6875-7.8943 4.6875-1.9739 0-3.6491 2.6759-3.6296 5.7978 0.0203 3.2661-9.5654 22.222-11.569 22.877-2.7786 0.90822-2.987-0.33143-0.80929-4.8137 1.1285-2.3228 2.0518-5.7095 2.0518-7.526s0.67161-4.6015 1.4925-6.1888c0.82086-1.5874 2.1332-5.0469 2.9163-7.6878 0.78312-2.6409 2.859-8.2711 4.6131-12.512 3.5009-8.4633 5.1123-18.275 3.1959-19.459-3.6936-2.2828-25.29 26.666-25.331 33.956-0.0185 3.266-3.14 10.707-6.8273 16.276-3.6076 5.4478-8.1845 14.162-8.1845 15.582 0 0.47978-1.0547 1.8631-2.3438 3.0742l-2.3438 2.2018v-2.026c0-1.1143 2.0039-6.0703 4.4531-11.013 4.1381-8.3516 4.3371-9.0727 2.8125-10.194-2.2908-1.6847-0.60915-13.382 2.1709-15.1 0.4818-0.29778 0.87601-1.8338 0.87601-3.4134 0-4.5973-2.4251-1.7004-7.5966 9.0744-2.4753 5.1573-6.057 11.908-7.9593 15.002-3.2988 5.3648-8.1052 16.481-9.7283 22.5-0.41717 1.5469-1.5102 4.5-2.429 6.5625-1.2843 2.8831-1.62 5.7771-1.452 12.518 0.29231 11.728-2.5188 15.759-6.4701 9.2785-3.0209-4.9546-1.711-14.322 4.0314-28.828 1.5308-3.8672 3.2562-8.2975 3.8342-9.8451 0.88033-2.3571 14.787-29.731 17.383-34.217 2.0235-3.4967 10.241-21.424 11.173-24.375 0.57002-1.8047 1.7784-5.6016 2.6854-8.4375 2.5938-8.1108 2.186-20.914-1.0066-31.597-2.6346-8.8159-2.428-12.466 0.70554-12.466 2.4681 0 6.8719 10.418 7.5409 17.839 1.1902 13.203 4.5073 21.434 5.7509 14.27 0.33563-1.9336 1.5602-4.9977 2.7213-6.8092s2.3834-4.1514 2.7162-5.2c0.33279-1.0485 2.7328-4.418 5.3335-7.4877 12.376-14.608 18.36-28.778 17.337-41.055-0.38395-4.6092-0.26242-9.3864 0.29292-11.515 6.8629-26.3 3.8988-29.387-20.394-21.239-6.4145 2.1514-10.761 3.106-12.705 2.7905-9.2452-1.5003-28.749 7.2424-22.633 10.145 13.107 6.2196 31.019 37.661 25.316 44.438-3.5284 4.1933-7.8854 3.4508-7.8854-1.3436 0-1.3877-1.7487-3.1356-5.8594-5.8567-10.463-6.9258-13.114-7.7236-23.722-7.1377-19.755 1.0912-22.874 0.41343-28.89-6.2776-6.5497-7.2848-15.519-5.492-13.177 2.6339 0.70007 2.429 0.88633 6.1975 1.7056 34.507 0.202 6.9807 0.82085 12.354 1.6196 14.062 1.0601 2.2676 1.1999 9.6827 0.77689 41.203-0.28371 21.141-0.20427 43.711 0.17651 50.156 1.028 17.4 1.1223 30.744 0.32494 45.955-0.67229 12.824-0.59762 13.839 1.291 17.541 1.1025 2.1611 2.0046 4.6099 2.0046 5.4417 0 9.0068 3.3194-0.64163 3.5632-10.357zm-43.976 6.5304c6.0876-4.0286 4.2321-11.272-6.353-24.799-11.797-15.077-15.415-18.627-24.953-24.491-5.1562-3.1701-11.273-7.3258-13.594-9.235-2.3203-1.9092-5.2734-4.0236-6.5625-4.6987s-5.0859-3.6341-8.4375-6.5756c-14.583-12.799-20.056-16.956-21.964-16.684-4.7593 0.68041-1.5337 7.6806 5.0982 11.064 1.9703 1.0052 4.4178 2.9973 5.4387 4.427 1.021 1.4296 5.5322 4.4978 10.025 6.8181 6.1615 3.1822 9.3129 5.5373 12.826 9.585 2.5613 2.9514 7.1433 6.8767 10.182 8.7227 7.617 4.6271 12.496 11.692 8.0748 11.692-2.8816 0-17.252-9.689-21.5-14.496-4.408-4.9882-10.959-8.862-22.244-13.153-2.3203-0.88229-6.6396-2.6911-9.5985-4.0196-2.9588-1.3285-5.6341-2.1611-5.945-1.8502-1.101 1.101 0.66869 4.3696 2.7008 4.9882 3.5501 1.0808 5.5019 3.3937 4.8972 5.8032-0.77016 3.0685 2.0783 6.7179 8.6144 11.037 11.487 7.59 13.004 8.5286 15.57 9.6344 1.7182 0.74047 2.536 1.711 2.3342 2.7701-0.39794 2.088-4.1966 2.6484-6.2282 0.91879-2.6624-2.2667-10.497-6.2548-14.297-7.2782-2.3304-0.62753-4.5058-2.1345-6.1019-4.2271-1.3642-1.7886-3.2881-3.2519-4.2753-3.2519s-3.9428-1.0884-6.568-2.4187c-4.8741-2.4699-13.636-4.4159-14.39-3.1961-0.7578 1.2262 3.1045 3.9156 12.107 8.4308 9.6245 4.827 16.577 9.5215 27.068 18.278 10.488 8.7539 15.939 12.671 18.488 13.286 1.2891 0.31127 2.806 0.92732 3.371 1.369 2.4578 1.9212 18.431 9.2509 20.16 9.2509 1.0474 0 2.8259 0.50759 3.9522 1.128 6.7013 3.6913 17.436 4.2599 22.104 1.1708zm-29.481-9.6086c-9.3034-4.9765-15.286-10.317-13.961-12.462 1.0801-1.7476 3.8656-0.74182 8.4024 3.0339 2.5687 2.1378 6.5688 4.7289 8.8891 5.7581 4.8348 2.1446 5.9348 3.3834 4.5191 5.0892-1.3863 1.6704-2.4254 1.4826-7.8499-1.419zm97.082 0.10941c3.1054-7.4348 3.4574-9.6746 1.5203-9.6746-1.8512 0-3.0628 1.783-4.2634 6.2738-0.57785 2.1615-1.8755 5.7474-2.8836 7.9688-1.0081 2.2213-1.827 4.8825-1.8198 5.9137 0.022 3.145 4.2271-2.7742 7.4464-10.482zm86.409 6.7332c15.498-2.702 20.105-3.7848 26.45-6.216 2.518-0.96485 5.2232-1.7543 6.0117-1.7543 0.78844 0 3.3689-1.2135 5.7344-2.6967 4.4945-2.8181 10.14-4.9912 16.488-6.3465 3.1148-0.66498 3.75-1.1829 3.75-3.0575 0-6.3329-21.792-8.4926-34.479-3.4172-3.2896 1.316-6.54 2.3928-7.2232 2.3928-0.68323 0-3.4059 1.0236-6.0505 2.2747-7.8024 3.6911-10.131 4.0354-9.7507 1.4418 0.36167-2.467 4.837-4.4681 10.248-4.5826 2.1944-0.0464 3.9934-0.77025 5.1562-2.0746 0.98227-1.1018 4.3825-3.1755 7.5562-4.6083 14.717-6.6444 23.798-19.577 18.338-26.117l-2.6105-3.1269-5.8003 2.928c-3.1902 1.6104-6.2942 2.928-6.8978 2.928-0.60364 0-3.2524 1.8265-5.8861 4.0589-8.2636 7.0044-22.473 16.809-25.622 17.68-1.6616 0.45941-5.238 2.2952-7.9474 4.0796-5.1731 3.4069-6.8082 3.8814-7.8068 2.2657-1.0411-1.6845 1.4182-3.6187 10.713-8.4253 10.441-5.3997 21.961-13.611 21.391-15.248-0.82446-2.3674-7.5751-1.0054-14.266 2.8782-3.8255 2.2205-8.4644 4.0874-11.122 4.4762-2.9234 0.42767-5.6152 1.5832-7.5 3.2196-3.7266 3.2355-6.5189 4.7025-8.9505 4.7025-1.0532 0-2.5688 0.99781-3.3679 2.2174-0.79908 1.2195-3.9475 4.2182-6.9964 6.6637-7.2635 5.8259-9.4847 11.683-5.7728 15.223 0.96727 0.92243 2.0626 2.6649 2.4341 3.8721 1.0794 3.5077 6.2988 5.1629 18.307 5.8056 5.9297 0.31738 11.064 0.65099 11.41 0.74135 0.34574 0.0904 6.6739-0.88971 14.062-2.1779zm-20.733-7.4388c-1.8142-2.1859 10.884-8.0315 17.447-8.0315 3.9768 0 2.4449 2.6638-2.3509 4.088-2.4969 0.74151-6.277 2.2344-8.4002 3.3176-4.5713 2.3321-5.2284 2.3935-6.6954 0.62585zm-105.13-32.63c-0.0719-9.9258-0.40069-19.845-0.73057-22.042l-0.59978-3.9951-2.8125 3.5263c-4.2579 5.3385-5.2934 26.274-1.6584 33.526 5.4431 10.86 5.9527 9.8922 5.8012-11.016zm213.9-3.0863c1.5376-0.79511 7.6667-3.078 13.62-5.073 11.778-3.9469 12.433-4.2889 10.988-5.7349-1.0415-1.0415-8.5434 0.49066-16.055 3.2789-5.5829 2.0724-10.742-0.85092-5.7608-3.2646 8.6982-4.2152 16.579-6.9199 22.444-7.7028 5.4566-0.72829 7.6791-1.503 9.9239-3.4592 1.591-1.3864 6.8735-4.6668 11.739-7.2896 12.097-6.5215 17.762-12.534 20.513-21.771 1.7861-5.9973 2.6865-7.4315 7.5431-12.015 14.757-13.927-13.802-3.5157-30.363 11.069-7.3833 6.5023-7.9458 6.8392-12.635 7.5671-13.856 2.1508-16.579 2.7781-20.142 4.6391-2.1574 1.127-6.9264 3.0314-10.598 4.232-14.576 4.7667-26.058 12.524-20.575 13.901 4.9891 1.2522 4.1855 5.2617-1.6418 8.1908-10.091 5.0723-10.472 10.036-0.52133 6.7811 5.9942-1.9606 8.504-0.44437 4.3301 2.6159-3.6676 2.689-2.3595 3.8307 3.544 3.0931 3.8378-0.4795 5.4994-0.2747 7.1498 0.8813 2.6498 1.856 3.0175 1.8594 6.4966 0.0603zm-3.7362-15.374c-3.848-2.3782 10.952-10.749 19.103-10.805 6.8088-0.0465 7.1112 2.6037 0.52041 4.561-2.6279 0.78041-5.9237 2.2258-7.324 3.2119-1.4003 0.98616-3.3898 2.0201-4.4211 2.2976-4.8585 1.3076-6.6772 1.4771-7.8788 0.73449zm-224.2 13.59c4.806-5.791 1.1148-26.889-6.3001-36.01-1.8258-2.2457-3.9208-5.8283-4.6557-7.9614-0.73488-2.133-1.6719-4.3034-2.0822-4.8231-1.9391-2.4559-8.3183-15.332-8.8792-17.923-0.70552-3.2584-4.7116-7.5061-7.5644-8.0208-1.346-0.24285-3.966-4.4345-9.375-14.999-4.1288-8.064-7.966-15.231-8.527-15.926-0.56102-0.69528-2.6081-3.9216-4.549-7.1697-5.4146-9.0611-7.7151-3.4818-4.5611 11.062 0.72684 3.3516 1.3452 8.625 1.3741 11.719 0.0312 3.3384 0.77353 7.2931 1.8262 9.7286 0.97552 2.257 1.7737 4.4898 1.7737 4.9619 0 2.01 7.561 10.903 9.7336 11.448 1.7201 0.43173 3.3932 2.5244 6.2759 7.85 16.165 29.864 19.078 40.136 7.9885 28.174-5.0952-5.4963-6.9268-8.1801-16.498-24.175-12.948-21.639-14.827-24.936-15.503-27.206-2.1902-7.3546-16.413-24.375-20.369-24.375-1.5283 0-4.4224-0.92384-6.4314-2.053-5.9566-3.3478-6.5974-1.1056-1.57 5.4936 4.6758 6.1378 11.905 19.362 14.09 25.775 0.79382 2.3297 2.9684 6.2338 4.8323 8.6758 1.864 2.4419 3.389 5.0544 3.389 5.8055 0 0.75108 1.0547 3.4469 2.3438 5.9908 1.2891 2.5438 2.3438 5.2049 2.3438 5.9134 0 1.1265 8.6611 12.86 18.75 25.401 1.8047 2.2433 5.9262 6.3692 9.159 9.1688 3.2328 2.7995 6.5641 6.0699 7.4029 7.2675 3.9301 5.611 22.365 10.084 25.583 6.2074zm-191.08-5.48c6.1424-5.1874 5.6239-7.3971-2.8162-12.004-10.484-5.7223-17.64-20.009-12.989-25.931 1.6629-2.1172 4.3649-1.3535 4.9749 1.4062 2.9765 13.467 11.888 22.834 13.942 14.653 0.57015-2.2717 0.89476-2.4117 4.3204-1.8639 5.8404 0.93392 4.3017-3.9204-4.3165-13.618-2.7047-3.0433-5.1046-9.806-5.1046-14.384 0-6.3767-12.349-6.4706-19.174-0.14576-4.4745 4.1469-8.1273 2.5414-6.1357-2.6968 1.3236-3.4814-0.78459-3.0113-6.343 1.4144-5.4991 4.3784-7.1933 4.7418-6.5557 1.4062 1.2154-6.3579-5.5985 0.81283-9.2831 9.7692-4.3014 10.456-1.8754 31.011 3.9226 33.236 1.7274 0.66288 1.7211 0.3145-0.14975-8.1995-1.9455-8.8539 1.3487-17.928 3.8717-10.665 3.18 9.1537 4.8283 12.181 9.4448 17.344 3.1446 3.517 5.9945 5.8594 7.1288 5.8594 1.0394 0 3.0969 0.85955 4.5723 1.9101 6.8306 4.8638 16.511 6.038 20.69 2.5093zm82.388-34.01c0-2.961-2.1564-5.3136-8.7378-9.5327-3.702-2.3732-8.1167-5.5096-9.8104-6.9697s-3.9295-2.6548-4.9684-2.6548c-2.3215 0-6.6628-2.1758-8.3161-4.1678-1.2608-1.5192-8.8272-5.2026-10.708-5.2129-0.57898-0.003-2.2753-0.64339-3.7697-1.4227-1.7692-0.92264-3.8344-1.2073-5.9204-0.81594-2.9367 0.55094-3.5531 0.22547-7.4034-3.909-4.9515-5.3171-5.3302-8.558-0.94494-8.0886 2.4382 0.26102 2.6354 0.0781 2.0207-1.875-0.37459-1.1903-0.98057-4.1147-1.3466-6.4986-0.40227-2.6197-1.6829-5.5434-3.2374-7.3908-7.1853-8.5393-7.2154-16.409-0.04022-10.52 2.2977 1.8861 7.8704 12.009 7.8704 14.297 0 2.1584 3.3684 5.0134 5.1213 4.3407 2.0541-0.78823 1.7843-2.8691-0.7689-5.9306-1.2155-1.4575-3.0585-4.5485-4.0956-6.8688-2.1696-4.8542-17.468-20.836-23.226-24.264-16.134-9.6046-36.341-7.0775-25.699 3.214 6.7772 6.5539 9.7699 14.165 12.147 30.893 1.7394 12.241 2.046 12.991 8.0172 19.589 5.424 5.9936 5.9846 6.3516 11.015 7.0342 6.8644 0.93152 7.3945 1.6405 3.4744 4.6471-7.5142 5.7632-7.8724 6.2154-7.1626 9.0435 0.99923 3.9812 7.7182 9.6739 13.209 11.191 11.333 3.1313 13.844 2.4669 6.0938-1.6121-6.922-3.6431-5.9381-8.1534 1.1876-5.4442 8.8993 3.3835 11.969 3.8172 13.594 1.92 0.86503-1.0103 2.2979-1.8369 3.1841-1.8369 0.88623 0 1.8655-0.41124 2.1761-0.91387 0.31675-0.51252 2.2855 0.33259 4.4827 1.9242 2.7784 2.0127 4.5585 2.6774 6.1204 2.2854 1.4153-0.35522 3.3881 0.17993 5.5197 1.4973 3.2095 1.9836 8.99 3.528 20.22 5.4021 0.38672 0.0645 0.70313-0.54319 0.70313-1.3505zm109.34-11.89c-2.64-6.39-5.28-18.04-5.28-23.34 0-4.0592-4.2841 0.18719-4.8634 4.8205-0.35456 2.8359-0.8931 6.4219-1.1968 7.9688-0.40185 2.0469 0.0798 3.8333 1.7692 6.5625 1.2767 2.0625 3.368 5.6484 4.6474 7.9688 1.2793 2.3203 3.5155 5.4791 4.9692 7.0195l2.6432 2.8008 0.28806-2.9585c0.17547-1.8022-0.98695-6.0386-2.974-10.839zm124.76-22.507c1.1377-2.1914 2.3321-5.25 2.6542-6.7969s1.4369-4.8879 2.4774-7.4245c1.3295-3.2414 1.7212-5.6785 1.3179-8.2006-0.78087-4.8832 5.752-18.005 12.472-25.051 5.6202-5.8927 6.685-10.212 2.2101-8.9654-8.2547 2.3004-9.8315-0.49259-4.2239-7.4819 5.2475-6.5405 13.365-8.8076 13.365-3.7328 0 1.7464 2.8429 3.0946 5.635 2.6722 3.6-0.54464 14.098 5.0876 16.709 8.9648 2.2786 3.383 2.3944 8.0282 0.52891 21.207-1.7303 12.223 8.9054 12.724 14.956 0.70436 2.1346-4.2406 1.8774-16.598-0.44071-21.171-2.09-4.1231-2.2393-6.6782-0.47571-8.1419 2.154-1.7877 3.705-0.37145 7.6109 6.9498 2.0581 3.8578 4.0128 7.0141 4.3438 7.0141 1.051 0 1.6364-3.7722 1.0992-7.0827-0.74112-4.567 2.0026-5.5214 5.0227-1.747 1.7292 2.1611 2.1902 3.8849 2.1938 8.2047 0.004 3.9611 0.32772 5.3588 1.1765 5.07 2.4608-0.83724-0.20652-16.726-3.4002-20.255-3.7445-4.1377 0.2919-5.3859 4.8941-1.5134 1.7092 1.4382 3.8148 4.9264 5.3763 8.9062 2.9129 7.4244 4.5185 8.1751 6.1118 2.8573 1.0193-3.4021 0.8829-4.1037-1.7768-9.1406-1.5844-3.0006-4.3186-8.1979-6.076-11.549-2.5504-4.8641-4.0622-6.5708-7.4918-8.4579-2.3631-1.3003-5.2203-3.5384-6.3492-4.9736-2.644-3.3613-6.6476-3.1968-7.462 0.30657-0.5058 2.1757-0.99593 2.3636-6.834 2.621-6.9933 0.30825-7.5855 0.85336-3.4707 3.1948 4.5554 2.5921 3.2802 5.4342-2.4382 5.4342-3.6114 0-15.177 3.4714-18.587 5.5789-5.4916 3.394-8.7081 1.91-5.287-2.4392 2.2875-2.9081 1.461-4.4993-2.7774-5.347-4.6358-0.92716-3.6078-5.9374 3.1666-15.433 3.3711-4.7254 4.9987-15.227 3.1774-20.503-0.84263-2.4405-0.63488-4.4986 1.1356-11.25 3.0606-11.671 3.2469-13.277 1.8447-15.897-1.0406-1.9444-1.0321-2.6614 0.0521-4.3768 0.71313-1.1283 1.4238-4.0554 1.5794-6.5046l0.2828-4.4531h-4.795c-5.5261 0-10.193 2.3978-11.882 6.105-0.60171 1.3206-2.7933 4.6518-4.8703 7.4027-6.1331 8.1233-9.2923 23.997-11.119 55.867-0.87945 15.347-4.7886 24.263-18.626 42.481-3.9556 5.208-6.2217 10.326-9.0654 20.475-1.7871 6.378-1.7898 6.4337-0.3133 6.3586 2.7751-0.14106 12.293-9.0357 14.898-13.922 3.4688-6.507 4.3956-7.5805 6.5448-7.5805 2.1144 0 2.2492 1.96 0.38311 5.5686-0.75742 1.4647-1.7861 4.9242-2.286 7.6878-1.1378 6.2904-3.5146 17.108-4.7086 21.431-2.6351 9.5395-1.8366 12.827 1.5371 6.3281zm-140.72 0.0225c-0.33268-1.6634-1.4154-4.722-2.4059-6.7969-3.0799-6.4511-3.2521-8.5413-0.96813-11.749 4.9511-6.9532 7.1269-26.158 3.9114-34.525-3.4335-8.934 0.0948-10.784 4.3939-2.3033 1.496 2.951 2.0364 5.8566 2.1442 11.528 0.14464 7.6106 1.7078 10.655 4.5644 8.8895 1.6677-1.0307 1.0059-12.02-1.0993-18.254-5.9884-17.732-20.776-21.333-28.851-7.024l-3.0398 5.3862 1.6078 4.327c0.88428 2.3798 2.4261 5.6904 3.4264 7.3568 3.0665 5.1088-1.1746 7.2312-4.7211 2.3626-2.7244-3.74-3.4314-2.0249-1.2232 2.9672 1.3437 3.0376 2.4499 4.2967 3.7752 4.2967 2.3276 0 4.7934 3.3758 4.7934 6.5625 0 1.3174 0.62569 3.2886 1.3904 4.3804 0.76474 1.0918 2.4728 5.4114 3.7956 9.599 3.5191 11.14 10.166 21.295 8.5059 12.996zm-51.192-44.14c0-1.1905-0.6194-2.9835-1.3764-3.9844-1.7771-2.3495-1.7816-4.1028-0.0157-6.0541 1.2854-1.4204 1.021-2.1648-2.7851-7.8408-2.313-3.4492-4.6831-8.0454-5.2669-10.214-1.1198-4.1587-15.385-32.146-17.462-34.261-1.8063-1.8387-2.4811-5.9936-4.9322-30.369-0.4518-4.4932-1.1063-8.6303-1.4544-9.1936-0.34814-0.5633-0.96884-3.2152-1.3793-5.8931-0.69816-4.5546-1.2069-6.2957-4.2988-14.713-0.66293-1.8047-1.4357-4.3359-1.7172-5.625-1.3102-5.9989-8.4818-16.341-13.736-19.809-2.8631-1.8895-6.365-4.9556-7.7821-6.8134-4.2886-5.6227-4.8509-4.6942-4.9482 8.1704-0.0481 6.3516-0.53276 12.996-1.0771 14.766-0.54438 1.7695-1.2622 8.1174-1.5952 14.106l-0.60536 10.889 3.1714 5.9858c1.7443 3.2922 3.6508 7.3657 4.2367 9.0522 0.66029 1.9006 2.2397 3.6828 4.1542 4.6875 6.1546 3.2301 20.433 20.797 20.433 25.139 0 2.7143-3.6588 3.4397-7.1022 1.408-6.2402-3.6818-19.148-6.07-19.148-3.5428 0 2.9672 2.5855 4.9356 4.747 3.614 2.4571-1.5023 8.2053 3.4396 13.471 11.581 4.1189 6.3686 6.0868 8.1896 8.2414 7.6262 3.1519-0.82425 10.103 9.6423 10.103 15.212 0 1.8793 10.028 16.051 11.357 16.051 1.7181 0 0.70944-2.9358-2.9583-8.6106-3.7772-5.8441-4.504-9.6707-1.8366-9.6707 1.7002 0 8.5973 9.9772 15.068 21.797 4.7954 8.7594 6.4945 10.462 6.4945 6.5073zm154.23-37.222c2.4218-3.9185-16.894-24.329-23.065-24.372-0.7248-0.005-3.5695-1.0574-6.3216-2.3386-6.0074-2.7966-23.292-3.6328-29.331-1.4189-4.7112 1.7269-6.4462 0.83512-6.4462-3.3133 0-2.2992-0.3768-3.2603-1.1719-2.9892-0.64453 0.21982-1.1719 1.7089-1.1719 3.3091 0 5.035-4.6503 6.2488-6.4065 1.6722-0.29335-0.76447-2.222-2.2514-4.286-3.3044-2.8124-1.4348-4.698-3.5331-7.5258-8.375-3.207-5.4911-4.2333-6.538-6.8399-6.977-1.6867-0.28403-5.3587-0.95081-8.16-1.4817-4.4028-0.83446-5.483-0.72885-7.9688 0.77915-1.5816 0.95945-4.3521 2.0423-6.1568 2.4062-1.8047 0.36399-4.9688 1.6182-7.0312 2.7872-2.0625 1.169-5.2712 2.6168-7.1304 3.2174-4.2356 1.3683-17.713 14.914-17.713 17.803 0 4.1626 7.0847 1.752 7.6681-2.6091 0.34668-2.5918 1.4191-3.2752 7.604-4.8454 2.4699-0.62705 5.9259-2.2806 7.6798-3.6744 11.655-9.2619 33.24-6.4178 40.072 5.2798 3.2002 5.4795 0.10448 7.6945-5.1957 3.7175-6.3379-4.7556-13.9-8.0738-18.351-8.0526-4.9253 0.0234-14.091 3.7421-10.884 4.4156 6.4052 1.3448 9.2756 2.5034 11.965 4.8296 1.669 1.4434 5.3549 3.7318 8.1908 5.0854s6.2109 3.288 7.5 4.2986c1.5698 1.2307 4.5472 2.0424 9.0163 2.4578l6.6725 0.62023 4.8432-4.3014c6.876-6.1068 9.1495-5.9214 14.677 1.1968 6.0948 7.8484 6.7308 8.0576 24.791 8.1564l15.469 0.0846 6.5625 3.3968c7.3215 3.7897 7.6173 3.8787 8.4449 2.5396zm-44.55-17.27c-1.2891-0.76596-3.2681-1.4076-4.3978-1.4259-2.6599-0.043-3.5857-1.6023-2.0499-3.4528 0.91957-1.108 2.1318-1.3066 5.0026-0.81954 2.0839 0.35357 5.9892 0.9453 8.6785 1.3149 5.711 0.78498 6.7616 1.5185 4.876 3.4041-2.0655 2.0655-9.297 2.6502-12.109 0.97915zm-204.33 5.549c1.7439-0.90179 3.7715-3.4105 5.4933-6.7969 2.7987-5.5042 13.564-16.606 19.54-20.151 4.9592-2.942 3.5665-4.2009-8.501-7.6839-5.2546-1.5166-5.4433-1.6802-5.1562-4.4703 0.29343-2.8525 0.20992-2.9141-5.5529-4.0902-7.3368-1.4974-7.743-1.7631-7.743-5.0654 0-3.6962-1.0471-4.0685-6.7119-2.3862-7.6244 2.2642-8.4878 2.0602-7.7575-1.8325 1.8559-9.893-23.73 4.5513-29.253 16.514-6.7442 14.609 0.06542 25.677 11.8 19.179 1.2631-0.69949 2.8537-1.058 3.5347-0.79664 0.68535 0.26298 3.9664-2.1882 7.3484-5.4897 7.0444-6.8769 11.526-9.48 15.617-9.0707 5.9007 0.59036 5.6561 5.3958-0.27645 5.431-5.0529 0.03-15.84 9.4053-14.585 12.676 0.69119 1.8012 7.7508-1.2644 10.44-4.5336 3.899-4.7396 9.5074-6.402 12.065-3.5761 2.0334 2.2469 1.0734 4.6998-2.0901 5.3405-4.5503 0.92167-7.0921 2.764-7.9525 5.7641-2.3808 8.3015 3.0763 14.486 9.7413 11.039zm-32.393-23.9c-1.556-2.5177 8.8851-15.85 13.895-17.743 6.0789-2.2968 6.0437 0.62036-0.06103 5.049-2.4492 1.7768-5.9297 5.5708-7.7344 8.4311-3.1792 5.0389-4.884 6.2302-6.1001 4.2626zm265.07-3.8048c6.8394-1.067 14.756-2.8103 17.591-3.874 5.1557-1.9337 8.9492-2.939 16.875-4.4722 2.3203-0.44882 6.2891-1.7422 8.8196-2.8742 2.5304-1.1319 7.3079-2.3938 10.617-2.8041 6.8829-0.85361 8.8356-2.2364 10.567-7.4828 1.9285-5.8434-0.7629-8.1932-13.53-11.813l-7.4331-2.1073-3.8169 1.9369c-2.0993 1.0653-5.617 3.17-7.8171 4.677-2.2001 1.5071-6.2607 3.5179-9.0236 4.4684-2.7628 0.95055-6.7368 2.8622-8.8311 4.2482-3.5374 2.341-7.1534 3.6437-13.536 4.8765-9.0839 1.7546 6.0494-8.5565 19.91-13.565 3.3584-1.2137 7.3717-3.4199 8.9186-4.9028 1.5469-1.4828 6.3984-4.3422 10.781-6.3541 4.3828-2.0119 8.6011-4.4219 9.3739-5.3556 0.77283-0.93363 3.6205-3.3341 6.3281-5.3343 4.1393-3.0579 4.9283-4.1171 4.9562-6.6541 0.0183-1.6595 0.63614-4.072 1.373-5.3611 3.9572-6.9223 1.2533-7.9867-5.7657-2.2696-2.8988 2.3611-7.217 5.1581-9.5961 6.2156s-5.1694 2.3646-6.2006 2.9047c-1.0312 0.54003-2.9297 1.5372-4.2188 2.2161-1.2891 0.67881-4.0968 1.2368-6.2394 1.24-3.0907 0.005-4.7255 0.6991-7.9118 3.3611-2.2088 1.8454-6.1511 4.4292-8.7606 5.7418-19.882 10-40.119 32.473-35.693 39.635 0.75856 1.2274 8.25 1.2484 9.4718 0.0266 0.51109-0.51109 2.8103-1.3304 5.1094-1.8208 2.2991-0.49035 7.1241-1.7597 10.722-2.8208 3.5982-1.0611 7.606-1.9158 8.9062-1.8994 3.8465 0.0485 0.23613 2.1776-7.7153 4.5498-23.228 6.9299-24.666 8.8561-4.2309 5.6679zm-49.665-10.951c0.52477-4.6263-1.306-18.287-2.2302-16.641-0.28954 0.51562-0.43991 3.6797-0.33418 7.0312 0.10574 3.3516 0.24922 7.8867 0.31886 10.078 0.17048 5.3652 1.6181 5.063 2.2456-0.46875zm9.5187 2.3438c0.18083-0.64453 0.76746-2.8594 1.3036-4.9219 1.3174-5.0678 5.3546-17.885 7.0869-22.5 2.5281-6.7345 12.336-25.127 13.749-25.783 5.2994-2.4606 5.1291-2.1146 5.1291-10.419 0-4.5716 0.49036-8.7177 1.1719-9.9086 1.6938-2.9598 1.5307-10.53-0.24161-11.21-2.0912-0.80247-5.9631 2.1257-6.6989 5.0662-0.89154 3.5628-4.0081 10.54-5.9619 13.348-0.89712 1.2891-3.3996 5.8242-5.5612 10.078-6.2093 12.22-7.9021 9.3922-2.6704-4.4608 5.5075-14.583 1.8519-35.082-3.9693-22.258-1.0422 2.296-1.8173 6.0885-1.8292 8.9499-0.0189 4.5409-0.26324 5.102-2.8583 6.5625l-2.8377 1.597 0.52167 15.938c0.5864 17.915 1.2795 42.264 1.3543 47.578 0.0467 3.3174 1.5978 4.8898 2.3121 2.3438zm-21.188-12.028c0.16128-3.826-0.39002-18.94-1.2251-33.587l-1.5183-26.631-3.7549-5.2442c-3.6276-5.0665-13.066-13.592-21.271-19.213-3.1511-2.1589-5.461-2.8616-11.215-3.412-7.9496-0.7604-13.829-2.5977-18.144-5.6704-5.1319-3.6542-1.9671 4.6538 4.772 12.527 3.1767 3.7113 6.1498 8.9241 13.756 24.118 1.9358 3.8672 4.2426 8.0859 5.1262 9.375 0.88362 1.2891 1.8918 4.4181 2.2403 6.9533 0.34853 2.5353 1.2739 5.5866 2.0563 6.7808 1.1335 1.7299 1.2139 2.7701 0.39559 5.1175-1.8213 5.2244-0.36906 9.8191 4.4419 14.054 2.3637 2.0806 6.2714 6.751 8.6838 10.379 4.1786 6.2835 11.751 12.409 14.425 11.669 0.51562-0.1426 1.0694-3.3896 1.2307-7.2155zm36.233-0.15939c9.6269-11.077 15.124-15.687 26.755-22.442 16.999-9.872 17.869-10.271 32.344-14.815 4.9502-1.5543 11.022-5.2795 15.674-9.617 2.074-1.9336 4.0577-3.5156 4.4083-3.5156 0.35061 0 2.9979-2.8692 5.8828-6.376 3.4109-4.1461 6.6313-7.001 9.2085-8.1631l3.9632-1.7871 1.6996 2.0989c1.54 1.9018 1.5732 2.4014 0.35351 5.3205-3.2562 7.7932-0.60563 15.93 3.857 11.841 0.48985-0.44888 7.5218-4.2333 15.627-8.4099 8.1048-4.1766 16.784-9.0333 19.287-10.793 2.5031-1.7594 5.9969-3.919 7.764-4.7991 4.6475-2.3147 17.676-16.169 19.861-21.12 2.0127-4.5601 5.7934-10.133 11.042-16.276 8.5169-9.9692 8.8731-10.733 8.5794-18.406-0.49806-13.012-4.0814-15.22-14.82-9.1337-6.6314 3.7588-21.236 9.2097-31.996 11.942-4.3283 1.099-5.0516 2.6314-2.1094 4.4689 4.651 2.9046-2.4146 11.867-7.6612 9.7184-16.346-6.6951-23.372-7.3424-53.745-4.9512-18.469 1.454-20.33 1.6738-22.969 2.7134-1.2891 0.50784-4.7629 1.2203-7.7196 1.5833-6.6277 0.8136-6.9958 1.361-3.9373 5.8548 2.0052 2.9463 2.3318 4.2409 1.8447 7.3129-1.139 7.1828-5.3912 20.699-8.5588 27.205-4.986 10.241-6.5951 12.441-10.587 14.478-4.353 2.2207-5.3409 4.4973-3.8005 8.7574 1.4364 3.9724-1.3646 9.7652-8.7975 18.194-5.9282 6.7222-9.73 13.053-13.721 22.847-4.4607 10.947-3.6758 13.114 2.2714 6.271zm241.91-16.64c0.93327-1.0312 2.2747-1.875 2.981-1.875 1.1458 0 3.1127-3.537 3.1127-5.5973 0-0.43327-1.4766-2.5551-3.2812-4.7152-3.6922-4.4193-3.918-5.1801-1.7805-6.0003 2.0018-0.76817 8.1562 2.7782 10.632 6.1261 2.2753 3.0775 3.0886 3.2693 5.1445 1.2134 3.6639-3.6639-0.0652-17.51-5.9301-22.019-1.638-1.2591-4.4498-3.5024-6.2484-4.9852-3.1145-2.5675-3.7939-2.7135-14.262-3.065-6.0457-0.20297-12.258-0.76462-13.805-1.2481-8.471-2.6476-19.773-1.8427-12.41 0.88377 12.446 4.6084 5.859 7.4671-7.0449 3.0572-5.1685-1.7663-7.2335-0.84737-5.4758 2.4369 2.7561 5.1498-0.66682 6.5156-6.0463 2.4124-4.2019-3.205-9.2179-3.5463-9.6292-0.65529-0.23373 1.6429 0.62636 2.5329 4.2188 4.3657 5.8204 2.9695 9.0095 6.3977 13.811 14.846l3.8928 6.8499h4.6545c3.3412 0 5.0001-0.46293 5.8795-1.6406 1.337-1.7905 4.4148-2.196 5.3375-0.70312 3.2509 5.2601 3.8622-0.81478 0.77437-7.6954-2.0985-4.6761-2.2894-5.7237-1.1719-6.431 5.181-3.279 19.492 11.508 19.594 20.246 0.0576 4.9444 4.1641 7.3856 7.0534 4.193zm-268.09-26.95c-0.61397-30.752-1.2294-45.07-1.9901-46.301-2.0191-3.267-7.5804 1.5005-6.3946 5.4818 0.42853 1.4388 0.85736 6.4128 0.95296 11.053 0.50828 24.67 1.975 45.122 3.4874 48.63 0.86088 1.9966 1.5652 4.563 1.5652 5.7031 0 2.1979 0.70863 3.323 2.093 3.323 0.49256 0 0.6115-11.594 0.28613-27.891zm-46.708 23.299c5.5883-8.3146-1.9724-28.141-20.818-54.591-2.0678-2.9022-4.6034-6.6644-5.6346-8.3604s-2.7188-4.4351-3.75-6.0867-4.55-5.6941-7.8194-8.9833-8.7164-9.4608-12.104-13.715c-8.4552-10.616-8.1136-10.918-8.2076 7.2656-0.0307 5.9297-0.38782 12.258-0.79374 14.062l-0.73803 3.2812 6.0868 3.1114c5.1507 2.6328 6.3984 3.7742 8.1128 7.4214 1.1143 2.3705 5.6594 8.2458 10.1 13.056 4.4408 4.8103 8.8502 9.9716 9.7987 11.47 0.94846 1.498 2.7643 2.9846 4.0353 3.3036 2.9894 0.75027 2.9382 2.7272-0.13314 5.1431-2.7915 2.1958-5.213 1.4909-7.0162-2.0422-2.7916-5.4696-7.7391-11.68-10.482-13.157-1.671-0.8999-3.8794-3.0536-4.9076-4.7861-5.2774-8.8926-8.791-12.411-15.052-15.072-3.404-1.4467-7.9008-4.0605-9.9928-5.8084-6.1703-5.1552-8.486-2.283-3.5988 4.4636 1.5774 2.1776 2.868 4.4282 2.868 5.0014s2.7605 4.4122 6.1344 8.5312 7.6981 9.5123 9.6094 11.985c1.9112 2.4729 5.268 6.6002 7.4594 9.1719s3.9844 5.0491 3.9844 5.5055c0 0.45636 1.3711 1.6788 3.0469 2.7164 1.6758 1.0377 3.8103 3.1836 4.7433 4.7688 0.93306 1.5851 3.0424 3.5692 4.6875 4.409 1.6451 0.83982 4.7746 3.158 6.9545 5.1514 2.1799 1.9935 4.7111 3.6394 5.625 3.6577 0.91387 0.0183 2.7163 0.64646 4.0053 1.396 4.4113 2.5649 11.309 1.4295 13.797-2.271zm-36.717-62.854c-3.1127-2.0671-6.0436-6.9474-6.1026-10.162-0.0518-2.8195 2.7931-3.9284 4.1196-1.6056 0.54854 0.9605 2.6143 3.5466 4.5905 5.7468 5.3278 5.9318 3.5255 10.093-2.6074 6.0204zm210.04 60.308c3.5405-1.68 3.8506-2.3954 1.7823-4.1119-2.2544-1.871-1.75-2.5285 4.7113-6.1419 3.3647-1.8816 7.8343-4.8554 9.9324-6.6084 3.9303-3.2837 7.3875-4.17 7.3875-1.8939 0 0.71132-1.8984 2.8489-4.2188 4.7503-8.7876 7.2008-0.7631 6.582 9.0873-0.70068 2.3732-1.7546 2.8957-1.8058 6.4524-0.63198 3.4448 1.1369 3.9643 1.1088 4.7278-0.25553 2.0856-3.7267 12.25-10.268 15.249-9.8138 3.568 0.54049 9.0174-2.1498 15.899-7.8491 0.43471-0.36005 0.0684-1.7565-0.81403-3.1033-2.3178-3.5375-0.57334-5.2518 5.3444-5.2518 3.3858 0 5.5452-0.62701 8.0716-2.3438 1.897-1.2891 3.8786-2.3571 4.4034-2.3734 2.6197-0.0813 14.548-14.775 14.548-17.92 0-0.91314 2.1094-6.1662 4.6875-11.673 5.0895-10.872 5.4448-12.333 3.2086-13.191-2.0044-0.76917-4.382 1.806-5.5671 6.0299-1.928 6.8718-7.4986 4.6317-6.7911-2.731 1.2292-12.792-13.988-2.2694-24.878 17.204-1.8258 3.2648-4.9592 7.8275-6.9632 10.139-2.004 2.3119-4.6363 5.6277-5.8496 7.3684-1.2133 1.7408-3.9992 3.9583-6.191 4.9278-2.1918 0.96953-6.4494 3.465-9.4614 5.5454-9.8489 6.8028-12.663 8.5262-16.858 10.324-14.564 6.2428-29.228 15.782-31.786 20.678-0.79866 1.5283-2.3679 2.67-4.1633 3.0291-1.5848 0.31697-3.9672 1.7445-5.294 3.1722l-2.4125 2.5959 4.2764 0.50747c2.352 0.27911 4.5754 0.80645 4.9408 1.1719 1.0504 1.0504 3.0958 0.78494 6.5383-0.84866zm47.137-11.754c7.5191-4.2158 12.328-9.2651 8.786-9.2245-1.6061 0.0185-16.172 7.5241-16.172 8.3332 0 0.48418-0.25607 1.5476-0.56905 2.3632-0.90746 2.3648 2.1064 1.8071 7.9549-1.472zm-164.38-35.26c0.29429-1.418 1.7598-5.9531 3.2566-10.078 1.4969-4.125 3.0064-9.3984 3.3546-11.719 0.34819-2.3203 1.3537-5.0625 2.2345-6.0938 0.88079-1.0312 2.1405-3.2407 2.7994-4.9098 0.65887-1.6691 2.6256-5.0428 4.3705-7.497 4.3842-6.1664 3.263-10.562-2.6941-10.562-9.0173 0-19.67 29.111-17.794 48.629 0.53518 5.5698 3.4755 7.0359 4.4728 2.2304zm24.813-16.025c0-4.9255 10.798-14.678 16.251-14.678 2.2566 0 2.8555-0.56568 3.9703-3.75 1.7596-5.0264 1.8699-4.7796-2.6434-5.9141-14.858-3.7347-14.258-3.7588-17.063 0.68403-4.5319 7.179-8.9322 29.782-6.3087 32.405 1.302 1.302 5.7933-5.4797 5.7933-8.7477zm-52.38-4.8929c-1.4553-4.1747-1.3242-8.605 0.31901-10.778 2.0057-2.6517 1.7428-5.3249-0.90769-9.2306-1.2891-1.8995-2.3438-3.7379-2.3438-4.0853 0-0.64281-7.3235-8.3427-19.31-20.302-3.6596-3.6514-7.4145-8.1155-8.3443-9.9202-0.92974-1.8047-3.1035-5.1349-4.8305-7.4004-1.727-2.2656-3.1401-4.8131-3.1401-5.6612 0-0.84808-0.80352-3.118-1.7856-5.0443s-2.0858-6.0892-2.4528-9.251c-0.36697-3.1617-1.2816-7.2192-2.0326-9.0165-1.6489-3.9463-0.98818-7.2882 1.5733-7.958 4.4035-1.1515 0.5058-8.1685-4.5374-8.1685-14.4 0-32.599-26.834-27.819-41.019 0.75733-2.2474-6.0203-6.1261-13.013-7.4472-1.5957-0.30147-3.3232-0.86822-3.8388-1.2594-5.1106-3.8776-16.02-8.5372-19.081-8.15-14.919 1.8872-28.074-2.6988-25.578-8.9163 2.7446-6.8359 3.004-6.4561-6.3046-9.2327-2.2484-0.67065-6.2562-2.7942-8.9062-4.7189-11.836-8.5965-18.925-12.07-24.636-12.07-4.1902 0-5.8413-0.43913-7.496-1.9936-3.0119-2.8295-5.4453-1.7234-4.6755 2.1252 0.32068 1.6034 0.58305 3.9223 0.58305 5.1532 0 4.7005 12.642 15.34 18.227 15.34 2.6593 0 4.5086 2.044 3.7165 4.108-0.92355 2.4067-4.95 2.945-8.3468 1.1157-2.154-1.16-3.972-1.4297-6.4736-0.96043-4.1959 0.78716-7.6149-1.8091-8.5473-6.4904-0.57399-2.8819-2.3991-9.4233-4.2662-15.291-0.72816-2.2882-0.58105-4.1154 0.62926-7.8158 1.5261-4.6658 2.2257-5.3308 7.3267-6.9648 1.3699-0.43882 1.5371-0.83599 0.70312-1.67-4.3063-4.3063 3.8098-8.3412 10.577-5.258 1.9807 0.90249 2.6963 0.80364 4.23-0.58431 4.4663-4.0419 35.662 12.422 35.662 18.821 0 1.9153-2.503 1.5874-5.6514-0.74039-2.7873-2.0608-4.4841-1.8765-3.3302 0.36172 7.5829 14.709 8.9976 15.618 15.142 9.7309 5.441-5.2134 9.2307-6.5763 15.952-5.7365 6.3764 0.79668 8.1276-1.4003 3.6698-4.604-1.4755-1.0604-4.8795-3.8849-7.5643-6.2766-6.9997-6.2354-16.697-11.673-24.529-13.756-11.8-3.14-20-9.55-29.042-22.68-1.597-2.3203-4.8401-6.468-7.2071-9.2172-2.4867-2.8882-4.3035-5.933-4.3035-7.212 0-1.2175-0.88867-3.7198-1.9748-5.5607-2.6311-4.4593-0.87151-7.5068 5.2851-9.1534 4.9189-1.3156 5.2117-2.436 1.3772-5.271-1.5469-1.1437-2.8125-2.8654-2.8125-3.826 0-2.4885-1.9733-3.0292-13.496-3.6981-11.565-0.67131-14.474-2.2878-10.103-5.6132 3.2874-2.501 0.63824-4.0877-7.6069-4.5561-7.8556-0.44623-12.535 1.3528-14.548 5.5934-0.67364 1.4188-2.7679 3.6281-4.654 4.9097-8.9031 6.0498-12.715 18.4-7.0197 22.745 3.6713 2.8011 5.7333 1.2914 3.5213-2.5781-4.3065-7.5335 1.802-14.976 12.307-14.995 6.2356-0.0112 6.5454 4.8888 0.41339 6.54-8.69 2.34-6.2092 9.5734 6.0295 17.58 4.125 2.6987 8.6317 6.2846 10.015 7.9688 3.1725 3.8628 4.3608 1.9339 2.7541-4.4704-0.57764-2.3025-1.527-6.0847-2.1096-8.405-1.158-4.6118-3.291-5.4778-6.8542-2.7827-2.3315 1.7635-3.7774 1.739-5.6114-0.0949-1.8953-1.8953-0.60277-4.5245 3.1881-6.4848 1.5029-0.77719 5.2688-3.5237 8.3686-6.1034 6.1793-5.1425 7.3434-5.4857 10.344-3.0498l2.0207 1.6406-2.3856 3.229c-2.8909 3.913-2.9189 5.0748-0.4148 17.216 2.3907 11.591 3.6557 14.782 7.9252 19.993 1.8115 2.2107 3.8929 5.4537 4.6254 7.2067 0.8353 1.9991 2.4092 3.6335 4.2223 4.3845 3.4548 1.431 5.3694 4.3897 3.8341 5.925-0.75307 0.75306-1.8579 0.54391-4.0712-0.7707-2.1621-1.2842-5.8751-2.0177-12.881-2.5448-16.51-1.242-17.473-1.3491-18.643-2.0718-1.9018-1.1754-10.219 0.45364-13.457 2.6357-3.988 2.6875-4.4162 7.4361-0.7133 7.9112 3.1715 0.4069 4.7079 2.6444 4.0555 5.9063-0.69184 3.4592 1.0197 5.5118 4.5958 5.5118 1.6154 0 3.9733 0.98998 5.5821 2.3438 1.532 1.2891 3.6002 2.3438 4.5961 2.3438 1.3415 0 2.6906 1.8829 5.206 7.2656 6.4421 13.786 7.38 15.413 9.9488 17.259 3.9616 2.8475 3.5707 6.4129-0.70312 6.4129-4.6731 0-1.0765 6.9165 10.942 21.042 5.6174 6.6024 17.591 8.026 20.446 2.4308 6.1535-12.062 20.643-8.842 20.643 4.5875 0 4.6402 1.6114 7.5643 4.1685 7.5643 0.67215 0 2.498 0.25518 4.0574 0.56707 2.3307 0.46612 2.9468 0.21583 3.4616-1.4062 1.1652-3.6714 15.025 5.7334 18.56 12.595 0.90988 1.7656 2.8704 3.8391 4.3568 4.6077 3.7909 1.9604 20.695 13.412 23.52 15.934 1.2891 1.1506 3.9201 3.0338 5.8467 4.1849s5.3016 4.1141 7.5 6.5846c2.1984 2.4704 5.1904 5.252 6.6489 6.1813 2.3619 1.5048 5.1564 4.6069 15.916 17.668 1.6469 1.9992 5.2092 6.1088 7.9162 9.1325s4.9219 5.9322 4.9219 6.4634c0 0.53117 2.1367 3.6847 4.7482 7.0077 7.008 8.9174 11.428 20.359 11.682 30.236 0.22651 8.8199 0.28221 8.9169 8.8038 15.333 7.0638 5.3184 9.7963 4.9334 7.6984-1.0849zm-24.761-9.2203c4.0562-6.0352 1.8208-16.914-5.0698-24.673-2.3252-2.618-6.145-7.7568-8.4885-11.42-2.3435-3.6628-5.8871-8.5119-7.8746-10.776-1.9875-2.264-3.6136-4.5462-3.6136-5.0715 0-0.52532-2.2148-3.3469-4.9219-6.2702-2.707-2.9233-6.8203-7.7264-9.1406-10.674-5.1625-6.5571-17.888-17.422-25.653-21.903-3.1642-1.8257-6.5967-4.0571-7.628-4.9587-16.905-14.779-13.403 2.3344 3.9849 19.471 5.8823 5.7972 12.736 13.602 15.231 17.344 2.495 3.7418 7.1022 9.533 10.238 12.869 7.615 8.1013 7.172 12.626-0.70201 7.1691-4.6571-3.2274-5.1777-3.1082-4.4053 1.0086 1.8984 10.119 7.127 19.327 11.601 20.43 1.4369 0.35419 6.2545 4.5274 11.395 9.8711 9.8755 10.265 11.513 11.249 18.25 10.964 4.1524-0.17538 4.8874-0.54114 6.7969-3.3822zm43.124-4.694c3.7796-5.6085 1.0036-21.156-5.3773-30.117-1.0204-1.4331-1.8554-3.1052-1.8554-3.716 0-7.5151-25.89-24.861-41.585-27.862-5.713-1.0922 2.6216 14.262 13.871 25.553 13.022 13.071 19.018 19.819 20.164 22.693 0.66834 1.6758 1.8495 3.0469 2.6248 3.0469 6.3097 0-9.8325-24.417-21.405-32.378-8.1246-5.5889-6.1098-8.4352 2.9975-4.2344 14.776 6.8153 27.765 29.462 25.095 43.753-1.3958 7.4714 1.4788 9.1849 5.4708 3.2612zm-121.14-8.2389c-3.8904-7.4069-13.206-18.804-14.396-17.613-0.55669 0.55668 4.2713 9.6677 6.4484 12.169 0.8976 1.0312 2.3606 3.3516 3.2512 5.1562 1.9108 3.8721 8.2865 10.785 8.7273 9.4622 0.16825-0.50473-1.6456-4.6332-4.0308-9.1743zm199.68-6.7814c10.101-1.2575 24.606-2.1974 39.609-2.5667 25.32-0.62315 26.769-0.97165 21.997-5.29-5.9997-5.4297-17.848-6.6902-28.282-3.0089-4.3965 1.5512-7.5433 1.1623-7.5433-0.93225 0-1.8286 3.7262-4.2087 6.5891-4.2087 6.9272 0 25.178-10.164 24.095-13.419-0.9668-2.9058-8.3602-4.2097-20.936-3.6923-16.043 0.66006-17.137-1.489-4.1729-8.2014 13.122-6.7945 21.676-20.441 8.9316-14.25-2.3344 1.1341-5.2792 2.062-6.544 2.062s-3.8903 0.57406-5.8343 1.2757c-6.1579 2.2225-15.885 4.3478-20.095 4.3907-4.0364 0.0411-11.545 1.6975-13.547 2.9886-0.57473 0.37057-3.5279 0.95112-6.5625 1.2901s-6.1503 1.1226-6.9238 1.7415c-0.77344 0.61882-3.8778 2.4907-6.8987 4.1598-30.983 17.118-33.052 35.926-4.3513 39.55 6.5292 0.82437 10.792 0.56002 30.469-1.8896zm-11.243-12.912c-8.3579-0.35809-12.279-1.6095-7.877-2.5142 4.6208-0.94981 26.043-1.5127 26.547-0.69757 1.6593 2.6848-4.8467 3.8041-18.67 3.2118zm-7.0383-18.1c-2.4942-1.716 1.3324-3.4784 10.136-4.6685 4.4797-0.60557 11.02-1.4972 14.534-1.9813 6.6911-0.92198 8.1426-0.65243 8.1426 1.5121 0 1.4623-1.341 1.7564-16.875 3.7006-5.9297 0.74217-11.625 1.5868-12.656 1.877-1.0312 0.29019-2.5078 0.0922-3.2812-0.43987zm-171.55 24.37c0-4.797-0.66106-5.4542-4.1421-4.1184-1.8931 0.72646-1.9047 4.0366-0.0235 6.7224 2.5538 3.646 4.1656 2.6385 4.1656-2.6039zm-11.016-7.4872c5.4321-0.0424 0.16362-9.3971-12.593-22.36-11.04-11.219-15.273-14.216-20.077-14.216-9.0511 0-22.748-22.144-17.721-28.649 1.8948-2.452 4.2188 0.27751 4.2188 4.9549 0 5.7516 5.3819 12.444 10.007 12.444 3.9011 0 3.8979-0.46807-0.0712-10.345-2.7342-6.8042-3.4112-10.142-4.7469-23.405-1.737-17.248-1.9124-18.152-3.9112-20.151-3.3446-3.3446-6.5791 0.0342-7.7978 8.1457-0.41101 2.7356-1.4285 7.505-2.2612 10.599-2.2146 8.2286-1.6069 24.378 1.0892 28.948 3.3862 5.7392 5.9972 15.925 4.8533 18.934-1.3649 3.59-0.54956 5.4614 1.8256 4.1903 6.7585-3.617 8.7612 0.91462 2.3891 5.4061-6.8008 4.7936-6.7493 6.9988 0.25981 11.138l3.9524 2.3342 1.1063-2.4281c1.5545-3.4118 2.7029-3.0861 8.4261 2.3897 2.7695 2.6498 6.6585 5.897 8.6421 7.216l3.6066 2.3982 1.5882-2.1055c1.6772-2.2235 4.2269-2.0273 5.1572 0.39682 0.80352 2.094 6.4737 5.1851 8.5415 4.6565 1.0312-0.26362 2.6133-0.48507 3.5156-0.49211zm24.006-10.256c2.1161-9.7657-14.055-27.987-26.133-29.446-2.8266-0.34136-7.1432-0.88722-9.5924-1.213-4.0352-0.53676-4.4531-0.41506-4.4531 1.2968 0 1.9037 3.5798 4.9172 5.8413 4.9172 5.4297 0 25.096 16.149 25.096 20.607 0 9.0409 7.4435 12.132 9.2409 3.8376zm274.65 3.9878c2.4121-1.3777 5.6513-3.7712 7.1982-5.319l2.8125-2.8141-4.6875 2.442c-2.5781 1.3431-5.7422 2.7428-7.0312 3.1104-2.9761 0.84876-6.5625 3.1747-6.5625 4.256 0 1.601 3.9272 0.80552 8.2706-1.6752zm49.845-18.577c2.1473-2.5873 0.42377-3.9324-5.7672-4.5011-7.9464-0.72988-8.9032 0.57086-2.5836 3.5126 5.9259 2.7585 6.7964 2.8615 8.3508 0.98848zm-192.19-4.2224c2.0125-1.0267 5.2652-3.8029 7.2283-6.1694 3.9675-4.7828 13.519-12.371 17.211-13.674 3.239-1.1428 5.9227-5.8584 5.2496-9.2241-0.61648-3.0824 1.6809-6.5342 10.432-15.674 9.3195-9.7338 10.264-19.625 1.1458-11.994-0.77344 0.64725-4.1797 1.3866-7.5696 1.6429-8.2964 0.62742-9.3643 1.3615-15.588 10.715-5.1784 7.7823-9.2972 11.545-12.646 11.552-3.0826 0.007-2.5267-1.6705 2.3633-7.1309 11.336-12.658 15.343-23.875 11.808-33.051-1.1196-2.906-2.3966-6.2329-2.8377-7.393-2.3526-6.1872-7.0033-0.21018-8.4177 10.818-0.92406 7.2054-1.6847 9.6162-4.4349 14.057-1.8258 2.9478-4.7307 8.2351-6.4553 11.75-1.7246 3.5146-4.1798 7.4342-5.4558 8.7103-8.9725 8.9725-11.514 27.482-4.909 35.759 1.4306 1.7927 8.7779 1.3963 12.877-0.69483zm-8.2437-12.451c-2.1959-2.6458 3.7483-13.007 6.1082-10.647 0.79113 0.79113-1.6432 7.9369-3.474 10.198-1.2927 1.5964-1.6337 1.6545-2.6342 0.44894zm-260.94 7.45c0.57131-0.68839 0.9782-3.1142 0.90422-5.3906-0.31769-9.7747 4.2123-16.255 10.935-15.644 4.0791 0.3709 3.9417 2.6629-0.42124 7.0259-4.1796 4.1796-5.5688 11.824-2.3716 13.051 2.405 0.92288 4.2068-1.5037 4.2068-5.6655 0-4.4611 1.7778-7.4794 5.5566-9.4334 1.6991-0.87863 2.833-2.3739 3.203-4.2238 0.38519-1.9259 1.4239-3.2377 3.1722-4.006 3.8143-1.6763 4.0313-2.4525 2.0743-7.4175-2.057-5.22-1.599-7.36 1.577-7.36 2.6812 0 5.9708 4.7492 5.9762 8.6278 0.0063 4.5193 1.8315 6.796 8.0211 10.005 8.7742 4.5492 9.2553 4.1128 8.4655-7.6788-0.35701-5.3297-0.26284-10.661 0.21082-11.934 0.47084-1.2658 1.1432-5.9321 1.494-10.37l0.63797-8.068-5.1358-0.53005c-11.823-1.22-32.442-21.24-32.442-31.5 0-4.0774-7.3172-7.0208-10.836-4.359-1.0009 0.75703-2.7593 1.3898-3.9076 1.4062-9.4063 0.13433-0.19301 27.136 11.993 35.149 3.0488 2.0048 6.497 4.6663 7.6626 5.9145s3.2795 2.873 4.6974 3.6107c3.8428 1.9992 3.4835 5.0431-0.5953 5.0431-2.3831 0-3.5712 0.60711-4.7707 2.4377-1.44 2.1977-1.9947 2.3781-5.6341 1.8324-5.6129-0.84171-8.8156 0.13682-9.5106 2.9058-0.37737 1.5036-2.0903 3.0501-5.026 4.5377-4.625 2.3437-9.3852 7.1378-9.3852 9.4521 0 1.8656 2.1493 1.6624 5.9148-0.55935 6.1144-3.6076 8.1755-0.004 3.7889 6.6246-3.2303 4.8812-4.7985 17.769-2.1623 17.769 0.36655 0 1.1339-0.56322 1.7052-1.2516zm216.69-13.54c0-17.418-1.3406-29.779-3.5689-32.907-1.5158-2.1284-3.9139-5.6772-11.619-17.193-3.6026-5.3848-4.9556-6.3588-8.8328-6.3588-2.5694 0-9.7297 3.3567-9.7297 4.5613 0 1.9804 3.6097 3.8471 7.0265 3.6335 3.5196-0.21998 3.6589-0.10809 5.2227 4.1951 0.88364 2.4316 3.0764 6.4394 4.8728 8.9062 2.4591 3.3768 3.397 5.7594 3.7954 9.6414 1.2366 12.049 2.4538 17.803 5.2348 24.749 2.1711 5.422 2.7964 8.1858 2.3684 10.467-0.72147 3.8457 0.00032 5.0966 2.9409 5.0966h2.2884v-14.79zm-229.34 7.759c2.9344-6.2395 3.0977-10.379 0.46413-11.767-6.0375-3.1821-3.9741-11.893 4.2092-17.77 2.2657-1.6271 4.5847-3.9793 5.1532-5.227 0.59894-1.3145 3.2225-3.3421 6.2382-4.8212 5.4926-2.6938 6.7815-5.6063 2.306-5.2108-1.273 0.11252-5.046 0.42985-8.3845 0.70518-11.824 0.97513-18.459 6.6057-22.465 19.063-5.0587 15.733 6.2155 38.344 12.479 25.027zm497.46 0.2017c5.3282-0.25474 6.5625-1.0687 6.5625-4.3274 0-5.4416-11.795-6.4814-19.665-1.7337-8.0833 4.8763-6.523 7.6993 3.7274 6.7436 2.8359-0.26442 7.0547-0.57153 9.375-0.68247zm-286.55-5.5923c-0.28737-2.707-1.3222-8.2494-2.2996-12.316-0.9774-4.0669-1.7771-8.1286-1.7771-9.0258 0-5.5496-5.768-4.2305-10.197 2.332-3.5293 5.2294 0.61231 14.557 6.4635 14.557 1.4617 0 1.0683 2.5554-0.48521 3.1515-2.2206 0.85214-1.6577 2.3477 1.6406 4.3588 5.6179 3.4253 7.2627 2.6696 6.6548-3.0572zm-157.11 0c-1.1706-3.5937-11.962-5.6444-11.962-2.2731 0 1.9924 0.50552 2.4514 3.0469 2.7668 6.72 0.83395 9.301 0.69102 8.9151-0.49368zm137.62-41.44c5.2085-5.2085 1.8874-12.699-5.6306-12.699-2.7891 0-6.0649-0.37781-7.2794-0.83958-8.8215-3.3539-19.692 0.93825-11.803 4.6606 1.194 0.56341 3.4365 2.6985 4.9834 4.7446 5.0664 6.7016 15.067 8.7965 19.73 4.1332zm38.86-22.64c0-9.9216-0.51212-13.717-3.8443-28.494-1.4522-6.4394-11.531-20.625-14.654-20.625-0.69043 0-2.1897 0.61225-3.3318 1.3606-2.5468 1.6687-8.7288 1.9712-20.123 0.98456-10.541-0.91271-10.935-0.17739-2.8125 5.2514 7.9814 5.3347 10.608 7.9114 14.375 14.104 1.7715 2.9116 3.8756 5.545 4.6758 5.8521 0.80015 0.30705 2.916 3.7208 4.7019 7.5861 2.0089 4.348 4.3454 7.8363 6.1275 9.1479 1.5842 1.1661 3.5362 3.3858 4.3378 4.9326 2.0246 3.9073 7.9602 10.713 9.3756 10.751 0.87 0.02 1.17-2.76 1.17-10.85zm-36.443-0.045c0.70766-0.85331 2.6495-2.1211 4.3151-2.8174 7.0576-2.9501 7.2666-7.1486 0.78971-15.865-9.3318-12.558-60.146-41.979-74.131-42.922-3.1154-0.20993-2.0042 5.5134 2.0252 10.431 4.4226 5.3972 14.336 13.277 16.755 13.318 5.3976 0.09 22.939 9.5217 22.939 12.334 0 2.6333-2.3921 2.1954-11.112-2.0343-18.06-8.7599-42.175-12.669-47.194-7.6496-2.18 2.18-0.0202 3.9441 4.8289 3.9441 2.5888 0 6.9262 0.84354 9.6388 1.8745s5.6842 1.8747 6.6037 1.875c0.91949 0.00026 3.7531 1.0552 6.297 2.3442 2.5438 1.2891 5.1056 2.3438 5.6929 2.3438 0.58724 0 2.3213 1.0548 3.8534 2.344s3.9134 2.6055 5.2916 2.925c1.3782 0.31953 6.5137 1.7448 11.412 3.1674 13.586 3.9454 12.081 7.7325-1.7996 4.5285-9.169-2.1165-7.1132 1.2909 4.0396 6.6955 7.7968 3.7783 10.215 4.2841 21.786 4.557 5.2101 0.12288 6.9655-0.18417 7.9688-1.3939zm224.76-3.0754c1.0947-2.5448 1.9904-5.5084 1.9904-6.5857 0-1.2268 0.87591-2.2918 2.3438-2.8499 5.6235-2.138-0.29205-25.221-6.4915-25.33-1.9136-0.0338-9.9147-5.614-9.9147-6.9148 0-7.069 21.025 5.0739 23.586 13.622 1.3511 4.5096 2.394 4.6078 3.2019 0.30137 2.1996-11.725-12.118-25.042-22.824-21.229-2.9537 1.0519-7.1799 2.1167-9.3915 2.3662-5.8018 0.65463-7.3738 2.1919-4.9163 4.8078 2.1874 2.3284 2.3521 3.5635 0.80523 6.0404-0.95006 1.5213-0.42906 2.5156 3.8007 7.2529 2.6959 3.0195 6.24 8.203 7.8757 11.519 1.6357 3.3159 3.9753 7.0303 5.1992 8.2541 2.2652 2.2652 2.4536 5.6406 0.62881 11.264-1.3953 4.2997 2.0938 2.1606 4.1062-2.5175zm-148.94-12.76c5.9297-3.9759 13.257-9.5186 16.284-12.317 3.0264-2.7984 7.667-6.7235 10.312-8.7224 7.138-5.3934 10.618-12.199 4.9075-9.5974-6.338 2.8878-4.4857-3.8021 2.9494-10.653 7.7445-7.1356 7.3741-8.4638-2.078-7.4515-8.692 0.93083-10.262 2.5464-13.251 13.632-2.742 10.172-4.3142 13.125-6.988 13.125-2.2702 0-3.3739-2.3512-1.9238-4.0984 5.158-6.215 6.3937-33.402 1.5182-33.402-1.5866 0-6.7274 7.2225-8.1821 11.495-0.56848 1.6698-2.2323 4.7994-3.6974 6.9548s-2.6638 4.3303-2.6638 4.8332c0 0.50284-1.4986 2.708-3.3302 4.9003s-3.9485 5.2908-4.7041 6.8856c-0.75565 1.5948-1.9762 3.9542-2.7124 5.2433-1.8572 3.2519-6.1282 17.997-6.1282 21.157 0 8.1419 5.3952 7.5978 19.688-1.9854zm-15.938-0.97665c0-1.7196 2.347-4.8985 8.7564-11.86 2.4957-2.7108 6.2206-7.3805 8.2774-10.377 2.0568-2.9967 4.3675-5.6894 5.1347-5.9839 1.9522-0.74914 3.8246 1.2926 2.6541 2.8943-0.50402 0.6897-2.45 3.5257-4.3244 6.3023-5.8091 8.6052-20.498 22.238-20.498 19.025zm-106.97 2.307c-1.7537-1.4573-3.8214-2.8204-4.5948-3.0292-0.77344-0.2088-6.1559-1.7752-11.961-3.4809-7.7024-2.2632-10.835-2.8215-11.59-2.0658-1.5078 1.5078-0.15019 3.0739 2.6647 3.0739 4.1779 0 12.254 2.6774 24.13 7.9994 4.1938 1.8795 4.946 0.4896 1.3515-2.4973zm208.63-5.1066 6.1028-3.3545 5.0894 1.4795c8.3483 2.4269 9.9295 0.36895 3.8307-4.9859-5.2398-4.6006-12.428-2.6778-18.727 5.0096-5.1519 6.2872-4.7403 6.4929 3.7041 1.8513zm-108.15-8.83c0.40293-0.77344 3.1126-6.2578 6.0215-12.188 6.761-13.782 9.8104-19.04 12.931-22.298 1.379-1.4394 3.1105-4.6211 3.8476-7.0705l1.3403-4.4534-3.7528 3.3904c-2.064 1.8647-6.194 6.2051-9.1776 9.6454-10.017 11.549-12.623 13.976-15.736 14.65-3.421 0.74112-3.6395 1.2442-1.6704 3.8475 0.93034 1.23 1.3861 4.1957 1.4062 9.1506 0.0303 7.45 2.3432 10.022 4.7897 5.3254zm-10.385-6.7169c0-1.6492-0.95333-3.9892-2.2558-5.5371-1.2407-1.4745-2.5397-4.4885-2.8867-6.6978-1.4123-8.9934-7.8597-26.048-9.8473-26.048-1.3782 0-1.1602 2.1732 0.42875 4.2739 2.1864 2.8907 1.777 9.0245-0.86179 12.913l-2.2978 3.3861 3.281 4.9479c1.8046 2.7213 4.4206 5.5993 5.8135 6.3954 1.3928 0.79614 3.497 3.4483 4.6759 5.8936 2.3221 4.8167 3.9503 5.0118 3.9503 0.4732zm22.881-39.431c1.7944-3.9376 4.1812-8.9816 5.3039-11.209 1.1227-2.2273 3.0825-6.1288 4.3551-8.6701s2.677-6.5491 3.1209-8.9062c1.178-6.2552 6.0689-20.159 8.827-25.094 3.6355-6.5046 3.219-8.3756-1.1068-4.9729-1.311 1.0312-2.9483 1.875-3.6384 1.875-6.8931 0-15.367 13.061-15.367 23.684 0 4.0036-1.9543 8.313-3.624 7.9914-0.84273-0.16229-1.5227-0.71118-1.511-1.2197 0.0116-0.50856 0.35878-6.5699 0.77139-13.47 0.69718-11.658 0.60476-12.934-1.3074-18.047-2.4319-6.5029-4.6415-7.0418-4.6415-1.132 0 0.77223-0.98871 4.0073-2.1971 7.189-1.9435 5.117-5.7791 17.068-9.5294 29.691-4.1829 14.079-4.1684 23.896 0.0488 33.108 1.3407 2.9284 2.3606 6.2749 2.2664 7.4366s-0.12453 2.4329-0.0674 2.8248c0.38639 2.6536 15.324-14.555 18.297-21.079zm-53.597 18.726c6.8068-3.8212 9.6431-12.58 5.8728-18.136-1.2891-1.8995-2.3438-3.9487-2.3438-4.5537 0-4.2563-23.575-19.087-34.808-21.897-7.9654-1.9927-19.637-9.7494-27.059-17.982-9.4435-10.475-13.759-8.2803-6.2438 3.1758 1.7263 2.6315 4.6635 7.1936 6.5271 10.138 2.3815 3.7626 4.5829 5.9553 7.4081 7.3787 2.2109 1.1138 5.7073 3.3852 7.7698 5.0475 6.0133 4.8465 11.612 8.071 16.571 9.5436 4.7647 1.415 6.5117 3.4063 4.635 5.283-1.237 1.237-10.524-3.0316-23.206-10.666-14.386-8.6602-25.995-11.1-32.186-6.7641-1.2425 0.8703-3.7576 1.8259-5.5891 2.1236-3.3784 0.54914-5.2322 3.4047-2.7163 4.1842 12.19 3.777 17.106 5.4686 21.397 7.3645 2.8359 1.2527 8.1592 3.1797 11.83 4.2822 10.575 3.1765 11.851 8.3903 1.3975 5.7112-4.6951-1.2033-9.4771 0.24962-9.4771 2.8795 0 1.7187 9.4853 5.7342 21.562 9.1283 24.005 6.7463 31.96 7.52 38.658 3.7598zm-91.158-6.9749c0-0.87134-1.6982-4.3949-3.7738-7.8301-5.3258-8.8144-3.0431-12.676 3.9755-6.7246 2.9497 2.501 3.4943 2.6096 12.923 2.5781 15.401-0.0515 13.954-1.4974-7.9688-7.9607-1.5469-0.45606-5.1328-1.0992-7.9688-1.4291-10.811-1.2578-13.238-4.5019-7.4286-9.9285 4.0704-3.8023 1.281-5.9215-15.54-11.806-31.111-10.884-41.209-3.292-22.031 16.563 2.3203 2.4022 5.1819 5.4622 6.359 6.7998 1.1877 1.3497 5.1516 3.544 8.9062 4.9302 14.187 5.2381 18.901 7.541 24.35 11.897 5.9158 4.7289 8.1975 5.5392 8.1975 2.9114zm106.88-42.241c0-4.89-8.92-23.68-11.24-23.68-2.2579 0-1.4666 2.6758 3.8661 13.073 5.0339 9.8142 7.3736 13.178 7.3736 10.603zm15.022-3.3398c0.0123-0.6141 1.1015-3.6478 2.4206-6.7415 2.7434-6.4342 5.0544-16.861 5.056-22.812 0.00094-5.1622-1.7288-4.8154-3.3489 0.67136-1.2786 4.3303-3.7128 7.6099-5.6484 7.6099-4.6161 0-5.1857 15.477-0.82895 22.527 0.70906 1.1473 2.3189 0.28827 2.3496-1.2538zm-105.2-16.9c0.35628-4.2186-1.266-5.1293-5.363-3.0106-3.673 1.8994-3.6444 2.897 0.14975 5.2101 3.9367 2.4 4.8577 2.0114 5.2133-2.1994zm-14.374-4.1852c-0.23383-0.67009-2.8556-2.2932-5.8261-3.6069-7.0164-3.103-13.724-8.0686-16.106-11.923-1.0428-1.6872-3.4038-4.1406-5.2468-5.4518-1.843-1.3113-9.3938-8.2433-16.78-15.405-15.758-15.276-20.052-19.11-21.408-19.11-0.54795 0-2.4072-1.0762-4.1317-2.3915s-5.6604-3.6443-8.7465-5.1755-6.5211-4.0148-7.6333-5.5191c-4.67-6.316-16.846-8.267-34.13-5.47-10.611 1.717-19.284 7.306-11.338 7.306 1.2242 0 4.0195 0.63281 6.2116 1.4062 2.1922 0.77344 5.0558 1.4062 6.3636 1.4062 4.8094 0 10.067 4.2824 15.802 12.872 7.2474 10.853 14.771 18.549 19.342 19.784 14.694 3.9695 29.915 20.042 25.443 26.867-1.9018 2.9025-1.1699 4.0058 3.1606 4.7647 1.9155 0.33565 4.3265 1.1331 5.3577 1.7722 2.7617 1.7113 14.96 2.7159 17.363 1.4298 1.4327-0.76676 3.7112-0.78371 8.3614-0.0622 4.4472 0.69 7.2451 0.69437 9.1958 0.0144 2.2971-0.80077 3.8001-0.5751 8.3168 1.2488l5.513 2.2262 0.67113-2.8802c0.36911-1.5841 0.4798-3.4285 0.24596-4.0986zm104.93-10.466c0.1217-13.855 3.0775-15.626 4.7518-2.8472 0.73302 5.5946 1.783 7.2818 3.5955 5.7775 2.2413-1.8601 1.7682-48.759-0.50628-50.194-3.25-2.046-7.01 4.444-7.8 13.484-0.1576 1.8047-0.31707 3.6286-0.35437 4.0531-0.23335 2.6561-3.4606-0.83291-5.9934-6.4795-7.9087-17.632-12.447-13.972-7.6593 6.1764 0.67392 2.8359 1.5101 8.1094 1.8583 11.719 2.0408 21.159 11.945 36.149 12.102 18.316zm-25.531 7.7168c1.1272-0.96544 2.0483-1.0785 3.3055-0.40565 6.5023 3.4799 6.2216-8.2333-0.45682-19.065-8.9608-14.533-17.05-24.844-19.491-24.844-3.3946 0-0.2439 8.8003 7.4654 20.852 3.3268 5.2005 4.2543 8.2106 2.53 8.2106-1.4937 0-6.5063-4.682-7.1358-6.6651-0.33084-1.0424-2.6062-3.2387-5.0562-4.8807-2.4501-1.642-6.8286-4.618-9.7301-6.6132-5.2808-3.6315-8.1498-3.9819-8.1498-0.99536 0 1.6084 3.1609 4.9746 10.513 11.196 5.3719 4.5458 5.9195 6.2644 2.2206 6.9688-5.4243 1.033 3.7962 10.365 16.329 16.527 4.2875 2.108 4.8875 2.0856 7.6564-0.28599zm70.179-16.719c1.3226-3.4786 1.1474-7.9077-0.31277-7.9077-2.3 0-4.358 2.3382-4.5617 5.1831-0.37576 5.2456 3.1638 7.2241 4.8745 2.7246zm12.915-15.902c1.134-2.3341 2.0618-4.8794 2.0618-5.6562 0-2.0507 4.2258-9.6179 7.9905-14.309 2.5927-3.2306 3.063-4.4066 2.3185-5.7977-1.7136-3.2019-1.076-8.5364 1.4098-11.795 2.67-3.5005 2.9752-5.5675 0.9375-6.3494-2.7282-1.0469 0.30045-11.259 5.783-19.5 6.3789-9.5876 7.1465-13.569 3.6171-18.763-8.7307-12.848-20.164 2.0848-23.931 31.256-0.44368 3.4362-1.4964 7.5813-2.3393 9.2114-1.6392 3.1698-2.5265 7.6578-4.709 23.817-0.7587 5.6175-2.09 12.468-2.9585 15.223-1.7638 5.5953-1.0531 7.5703 1.5042 4.1801 1.844-2.4447 3.8145-1.976 3.8145 0.90729 0 3.2227 2.38 1.9408 4.5007-2.4242zm-13.345-8.044c0.35278-0.57081 1.2363-6.1582 1.9634-12.416 0.72706-6.2582 2.1508-14.062 3.1639-17.342s1.852-7.7121 1.8643-9.8492 0.43639-5.5731 0.94242-7.6356c0.60443-2.4635 0.59991-5.6797-0.0131-9.375-0.51328-3.0938-1.1844-7.6975-1.4915-10.231-0.98972-8.1648-6.1934-11.84-10.403-7.3476l-2.4156 2.5781 0.61003 17.812c0.33552 9.7969 0.80036 25.36 1.033 34.586 0.49472 19.62 1.6379 24.249 4.746 19.22zm-108.46-14.551c3.8369-0.76738 3.7353-1.2223-1.5234-6.8214-8.05-8.562-12.43-10.89-12.43-6.6 0 6.4449-6.1117-1.0237-6.9578-8.5026-1.5093-13.341-13.063-25.838-22.203-24.016-1.4107 0.28129-3.3054-0.11794-4.4868-0.94539-4.1567-2.9114-11.532 0.0078-8.3057 3.2877 1.3664 1.3893-2.0739 4.8085-4.8382 4.8085-2.6011 0-3.8336 2.0125-3.8336 6.2596 0 5.9559 2.325 7.1771 10.021 5.2637 6.0138-1.4951 11.013-1.045 10.363 0.93314-0.50656 1.541-7.2764 5.3175-9.6031 5.357-2.162 0.03671-11.72 8.5663-11.715 10.454 0.0169 6.0942 11.486 12.121 16.55 8.6972 1.4657-0.99105 3.825-2.3104 5.243-2.9319 1.418-0.62149 2.5781-1.7315 2.5781-2.4667 0-2.8634 2.6781-3.8661 7.1391-2.673 3.4482 0.92224 4.6473 0.87747 6.8379-0.25534 2.434-1.2587 2.9757-1.2003 6.4688 0.69729 11.2 6.0843 13.055 7.2041 14.181 8.5604 1.3581 1.6364 2.2078 1.7531 6.506 0.89344zm164.53-16.797c17.677-9.7166 22.027-22.695 8.0526-24.027-4.79-0.45668-4.7844-3.0411 0.0161-7.4292 2.4074-2.2006 3.7957-4.2266 3.5983-5.2514-0.59093-3.0685-3.5243-2.4433-7.4328 1.5841-2.0786 2.1419-6.3866 5.0644-9.5732 6.4944-3.6663 1.6453-6.2785 3.5063-7.1137 5.0682-0.72594 1.3575-2.7136 3.4232-4.417 4.5903-2.8153 1.9291-4.0092 4.1334-6.6063 12.197-0.36585 1.1359 0.1833 1.8925 1.8274 2.5175 1.2927 0.49149 2.5001 1.267 2.6831 1.7233 2.2628 5.6428 11.149 6.8299 18.966 2.5334zm-89.988-1.2506c3.8968-4.306 2.6474-11.05-1.508-8.1393-4.5696 3.2006-6.7634 0.91167-7.774-8.1111-1.7786-15.88-4.6617-22.661-14.053-33.054-7.399-8.188-14.457 10.567-8.3626 22.222 0.8801 1.683 1.8868 3.6677 2.2371 4.4104 1.3879 2.9426 2.8467 2.0787 2.8467-1.6857 0-2.075 0.40649-4.024 0.90331-4.3311 1.1568-0.71492 4.7217 2.8144 4.7217 4.6745 0 0.7779 1.2669 3.1632 2.8153 5.3007s3.2772 5.6143 3.8417 7.7263c1.332 4.983 2.3944 6.1836 5.4717 6.1836 1.9616 0 2.8728 0.73119 4.0888 3.2812 1.7869 3.7472 2.5402 3.9876 4.7711 1.5225zm5.9438-17.226c1.9183-2.4651 3.2593-12.697 2.7461-20.954-0.81213-13.067-1.4069-15.586-4.2945-18.186-1.4315-1.2891-3.3398-3.4925-4.2408-4.8965-2.2801-3.5532-7.4713-4.5045-10.121-1.8546l-1.9279 1.9279 2.4194 2.8753c1.3307 1.5814 2.6567 3.6159 2.9467 4.521 0.28999 0.90513 2.1121 2.4894 4.0492 3.5207 6.0711 3.2322 7.0265 6.3872 6.4586 21.328-0.46612 12.262-0.11028 14.385 1.9644 11.719zm175.89 310.04c-0.66976-1.7454-1.2354-1.2641 6.5419-5.5658 4.6637-2.5795 6.6768-3.2578 7.431-2.5037 1.5399 1.5399-1.4491 4.3892-7.5203 7.1686-6.0546 2.7719-5.7508 2.7295-6.4526 0.90083zm-68.099-127.23c-0.50387-1.3666 4.551-10.937 6.6869-12.66 4.3173-3.483 1.816 6.7223-2.8702 11.711-2.2594 2.405-3.1941 2.6375-3.8166 0.94918z"/>
</svg>
